<?xml version="1.0" encoding="UTF-8" standalone="no"?>
<!DOCTYPE svg PUBLIC "-//W3C//DTD SVG 1.1//EN"
 "http://www.w3.org/Graphics/SVG/1.1/DTD/svg11.dtd">
<!-- Generated by graphviz version 2.40.1 (20161225.0304)
 -->
<!-- Title: models_diagram Pages: 1 -->
<svg width="4750pt" height="879pt"
 viewBox="0.00 0.00 4749.69 879.00" xmlns="http://www.w3.org/2000/svg" xmlns:xlink="http://www.w3.org/1999/xlink">
<g id="graph0" class="graph" transform="scale(1 1) rotate(0) translate(4 875)">
<title>models_diagram</title>
<polygon fill="transparent" stroke="transparent" points="-4,4 -4,-875 4745.6909,-875 4745.6909,4 -4,4"/>
<!-- CustomerLogin -->
<g id="node1" class="node">
<title>CustomerLogin</title>
<ellipse fill="none" stroke="#000000" cx="1081.9452" cy="-693" rx="83.3857" ry="18"/>
<text text-anchor="middle" x="1081.9452" y="-689.3" font-family="Times,serif" font-size="14.00" fill="#000000">CustomerLogin</text>
</g>
<!-- SchedulePause -->
<g id="node2" class="node">
<title>SchedulePause</title>
<ellipse fill="none" stroke="#000000" cx="225.9452" cy="-251" rx="81.4863" ry="18"/>
<text text-anchor="middle" x="225.9452" y="-247.3" font-family="Times,serif" font-size="14.00" fill="#000000">SchedulePause</text>
</g>
<!-- ScheduleRule -->
<g id="node35" class="node">
<title>ScheduleRule</title>
<ellipse fill="none" stroke="#000000" cx="228.9452" cy="-164" rx="74.9875" ry="18"/>
<text text-anchor="middle" x="228.9452" y="-160.3" font-family="Times,serif" font-size="14.00" fill="#000000">ScheduleRule</text>
</g>
<!-- SchedulePause&#45;&gt;ScheduleRule -->
<g id="edge1" class="edge">
<title>SchedulePause&#45;&gt;ScheduleRule</title>
<path fill="none" stroke="#05d81b" d="M226.849,-224.7895C227.2288,-213.7748 227.6696,-200.9937 228.0486,-190.0016"/>
<ellipse fill="none" stroke="#05d81b" cx="226.7047" cy="-228.9759" rx="4" ry="4"/>
<ellipse fill="#05d81b" stroke="#05d81b" cx="228.1865" cy="-186.001" rx="4" ry="4"/>
</g>
<!-- CustomerCheckout -->
<g id="node3" class="node">
<title>CustomerCheckout</title>
<ellipse fill="none" stroke="#000000" cx="1721.9452" cy="-693" rx="101.2821" ry="18"/>
<text text-anchor="middle" x="1721.9452" y="-689.3" font-family="Times,serif" font-size="14.00" fill="#000000">CustomerCheckout</text>
</g>
<!-- DeliveryService -->
<g id="node4" class="node">
<title>DeliveryService</title>
<ellipse fill="none" stroke="#000000" cx="772.9452" cy="-693" rx="85.2851" ry="18"/>
<text text-anchor="middle" x="772.9452" y="-689.3" font-family="Times,serif" font-size="14.00" fill="#000000">DeliveryService</text>
</g>
<!-- Delivery -->
<g id="node13" class="node">
<title>Delivery</title>
<ellipse fill="none" stroke="#000000" cx="1256.9452" cy="-585" rx="50.0912" ry="18"/>
<text text-anchor="middle" x="1256.9452" y="-581.3" font-family="Times,serif" font-size="14.00" fill="#000000">Delivery</text>
</g>
<!-- DeliveryService&#45;&gt;Delivery -->
<g id="edge2" class="edge">
<title>DeliveryService&#45;&gt;Delivery</title>
<path fill="none" stroke="#4a426e" d="M839.8215,-678.0772C937.1139,-656.3673 1115.7097,-616.5154 1204.2772,-596.7524"/>
<ellipse fill="none" stroke="#4a426e" cx="835.7132" cy="-678.9939" rx="4" ry="4"/>
<polygon fill="#4a426e" stroke="#4a426e" points="1204.3463,-596.737 1215.0864,-598.9511 1209.2263,-595.6481 1214.1063,-594.5591 1214.1063,-594.5591 1214.1063,-594.5591 1209.2263,-595.6481 1213.1262,-590.1671 1204.3463,-596.737 1204.3463,-596.737"/>
</g>
<!-- Customer -->
<g id="node16" class="node">
<title>Customer</title>
<ellipse fill="none" stroke="#000000" cx="1343.9452" cy="-338" rx="56.59" ry="18"/>
<text text-anchor="middle" x="1343.9452" y="-334.3" font-family="Times,serif" font-size="14.00" fill="#000000">Customer</text>
</g>
<!-- DeliveryService&#45;&gt;Customer -->
<g id="edge4" class="edge">
<title>DeliveryService&#45;&gt;Customer</title>
<path fill="none" stroke="#7f451b" d="M817.7554,-673.5368C851.3505,-658.9798 898.4816,-638.6317 939.9452,-621 1036.1867,-580.0749 1071.9389,-590.9197 1156.9452,-530 1232.1869,-476.0781 1226.592,-436.4238 1294.9452,-374 1299.9728,-369.4085 1305.5775,-364.8455 1311.1493,-360.5879"/>
<ellipse fill="none" stroke="#7f451b" cx="814.0436" cy="-675.1457" rx="4" ry="4"/>
<polygon fill="#7f451b" stroke="#7f451b" points="1311.1873,-360.5598 1321.8996,-358.2149 1315.2027,-357.5804 1319.2181,-354.601 1319.2181,-354.601 1319.2181,-354.601 1315.2027,-357.5804 1316.5367,-350.9872 1311.1873,-360.5598 1311.1873,-360.5598"/>
</g>
<!-- Order -->
<g id="node19" class="node">
<title>Order</title>
<ellipse fill="none" stroke="#000000" cx="902.9452" cy="-251" rx="38.1938" ry="18"/>
<text text-anchor="middle" x="902.9452" y="-247.3" font-family="Times,serif" font-size="14.00" fill="#000000">Order</text>
</g>
<!-- DeliveryService&#45;&gt;Order -->
<g id="edge3" class="edge">
<title>DeliveryService&#45;&gt;Order</title>
<path fill="none" stroke="#a4db7b" d="M766.9282,-664.8811C765.8871,-635.3926 769.3433,-587.8831 778.9452,-548 803.9827,-444.0024 856.8529,-327.5755 885.0752,-276.896"/>
<polygon fill="#a4db7b" stroke="#a4db7b" points="766.9292,-664.8994 763.0198,-675.1447 767.2207,-669.8909 767.5122,-674.8824 767.5122,-674.8824 767.5122,-674.8824 767.2207,-669.8909 772.0045,-674.62 766.9292,-664.8994 766.9292,-664.8994"/>
<polygon fill="#a4db7b" stroke="#a4db7b" points="885.0764,-276.8938 893.9508,-270.4522 887.5611,-272.5549 890.0458,-268.2159 890.0458,-268.2159 890.0458,-268.2159 887.5611,-272.5549 886.1407,-265.9797 885.0764,-276.8938 885.0764,-276.8938"/>
</g>
<!-- DeliveryService&#45;&gt;ScheduleRule -->
<g id="edge5" class="edge">
<title>DeliveryService&#45;&gt;ScheduleRule</title>
<path fill="none" stroke="#56b78f" d="M747.8126,-669.5805C690.0143,-615.4951 543.6536,-477.2371 426.9452,-356 375.8771,-302.9503 369.6437,-283.3855 315.9452,-233 298.0736,-216.231 276.4978,-199.1014 259.3037,-186.1045"/>
<ellipse fill="none" stroke="#56b78f" cx="750.8503" cy="-672.4207" rx="4" ry="4"/>
<ellipse fill="#56b78f" stroke="#56b78f" cx="255.9072" cy="-183.5575" rx="4" ry="4"/>
</g>
<!-- OmniImporter -->
<g id="node5" class="node">
<title>OmniImporter</title>
<ellipse fill="none" stroke="#000000" cx="3380.9452" cy="-853" rx="77.9862" ry="18"/>
<text text-anchor="middle" x="3380.9452" y="-849.3" font-family="Times,serif" font-size="14.00" fill="#000000">OmniImporter</text>
</g>
<!-- Distributor -->
<g id="node17" class="node">
<title>Distributor</title>
<ellipse fill="none" stroke="#000000" cx="1440.9452" cy="-780" rx="62.2891" ry="18"/>
<text text-anchor="middle" x="1440.9452" y="-776.3" font-family="Times,serif" font-size="14.00" fill="#000000">Distributor</text>
</g>
<!-- OmniImporter&#45;&gt;Distributor -->
<g id="edge10" class="edge">
<title>OmniImporter&#45;&gt;Distributor</title>
<path fill="none" stroke="#56b91a" d="M3293.6778,-849.7162C2966.3693,-837.4 1815.0971,-794.0789 1513.6417,-782.7355"/>
<polygon fill="#56b91a" stroke="#56b91a" points="3293.7048,-849.7171 3303.5285,-854.5901 3298.7013,-849.9052 3303.6977,-850.0933 3303.6977,-850.0933 3303.6977,-850.0933 3298.7013,-849.9052 3303.867,-845.5964 3293.7048,-849.7171 3293.7048,-849.7171"/>
<polygon fill="#56b91a" stroke="#56b91a" points="1513.2722,-782.7217 1503.4485,-777.8487 1508.2758,-782.5336 1503.2793,-782.3456 1503.2793,-782.3456 1503.2793,-782.3456 1508.2758,-782.5336 1503.11,-786.8424 1513.2722,-782.7217 1513.2722,-782.7217"/>
</g>
<!-- ActsAsTaggableOn::Tagging -->
<g id="node41" class="node">
<title>ActsAsTaggableOn::Tagging</title>
<ellipse fill="none" stroke="#000000" cx="1974.9452" cy="-164" rx="143.7746" ry="18"/>
<text text-anchor="middle" x="1974.9452" y="-160.3" font-family="Times,serif" font-size="14.00" fill="#000000">ActsAsTaggableOn::Tagging</text>
</g>
<!-- OmniImporter&#45;&gt;ActsAsTaggableOn::Tagging -->
<g id="edge6" class="edge">
<title>OmniImporter&#45;&gt;ActsAsTaggableOn::Tagging</title>
<path fill="none" stroke="#8e0daf" d="M3360.7491,-828.4694C3351.6641,-815.0057 3342.9452,-797.5205 3342.9452,-780 3342.9452,-780 3342.9452,-780 3342.9452,-639 3342.9452,-628.1122 3268.3418,-468.9896 3260.9452,-461 3207.0137,-402.7452 3179.6207,-400.9407 3104.9452,-374 2757.3554,-248.6 2321.3388,-194.7351 2106.7148,-174.5304"/>
<ellipse fill="none" stroke="#8e0daf" cx="3363.1681" cy="-831.8647" rx="4" ry="4"/>
<polygon fill="#8e0daf" stroke="#8e0daf" points="2106.62,-174.5217 2097.0808,-169.113 2101.6416,-174.0576 2096.6632,-173.5936 2096.6632,-173.5936 2096.6632,-173.5936 2101.6416,-174.0576 2096.2455,-178.0742 2106.62,-174.5217 2106.62,-174.5217"/>
<text text-anchor="middle" x="3326.4452" y="-508.3" font-family="Times,serif" font-size="14.00" fill="#000000">taggings</text>
</g>
<!-- OmniImporter&#45;&gt;ActsAsTaggableOn::Tagging -->
<g id="edge8" class="edge">
<title>OmniImporter&#45;&gt;ActsAsTaggableOn::Tagging</title>
<path fill="none" stroke="#fb5e5f" d="M3380.9452,-826.5538C3380.9452,-812.6904 3380.9452,-795.4281 3380.9452,-780 3380.9452,-780 3380.9452,-780 3380.9452,-548.5 3380.9452,-287.8233 2470.3567,-197.6935 2114.797,-172.4366"/>
<ellipse fill="none" stroke="#fb5e5f" cx="3380.9453" cy="-830.6997" rx="4" ry="4"/>
<polygon fill="#fb5e5f" stroke="#fb5e5f" points="2114.6735,-172.428 2105.014,-167.2372 2109.6858,-172.077 2104.6981,-171.7261 2104.6981,-171.7261 2104.6981,-171.7261 2109.6858,-172.077 2104.3823,-176.215 2114.6735,-172.428 2114.6735,-172.428"/>
<text text-anchor="middle" x="3425.9452" y="-508.3" font-family="Times,serif" font-size="14.00" fill="#000000">tag_taggings</text>
</g>
<!-- ActsAsTaggableOn::Tag -->
<g id="node42" class="node">
<title>ActsAsTaggableOn::Tag</title>
<ellipse fill="none" stroke="#000000" cx="2742.9452" cy="-164" rx="123.4781" ry="18"/>
<text text-anchor="middle" x="2742.9452" y="-160.3" font-family="Times,serif" font-size="14.00" fill="#000000">ActsAsTaggableOn::Tag</text>
</g>
<!-- OmniImporter&#45;&gt;ActsAsTaggableOn::Tag -->
<g id="edge7" class="edge">
<title>OmniImporter&#45;&gt;ActsAsTaggableOn::Tag</title>
<path fill="none" stroke="#67eb5d" d="M3453.0484,-839.0318C3483.016,-828.6388 3510.9452,-810.7139 3510.9452,-780 3510.9452,-780 3510.9452,-780 3510.9452,-251 3510.9452,-187.896 3096.2778,-170.5556 2876.3385,-165.7965"/>
<polygon fill="#67eb5d" stroke="#67eb5d" points="3452.8068,-839.1088 3441.9122,-837.861 3448.0433,-840.6285 3443.2799,-842.1481 3443.2799,-842.1481 3443.2799,-842.1481 3448.0433,-840.6285 3444.6476,-846.4353 3452.8068,-839.1088 3452.8068,-839.1088"/>
<polygon fill="#67eb5d" stroke="#67eb5d" points="2876.3355,-165.7965 2866.4325,-161.0868 2871.3366,-165.6912 2866.3377,-165.5858 2866.3377,-165.5858 2866.3377,-165.5858 2871.3366,-165.6912 2866.2429,-170.0848 2876.3355,-165.7965 2876.3355,-165.7965"/>
<text text-anchor="middle" x="3546.9452" y="-508.3" font-family="Times,serif" font-size="14.00" fill="#000000">base_tags</text>
</g>
<!-- OmniImporter&#45;&gt;ActsAsTaggableOn::Tag -->
<g id="edge9" class="edge">
<title>OmniImporter&#45;&gt;ActsAsTaggableOn::Tag</title>
<path fill="none" stroke="#407239" d="M3449.3158,-838.7478C3519.6346,-823.1124 3618.9452,-797.8677 3618.9452,-780 3618.9452,-780 3618.9452,-780 3618.9452,-251 3618.9452,-166.5673 3519.2745,-213.6056 3435.9452,-200 3331.6807,-182.9762 3045.0239,-172.3817 2874.818,-167.3971"/>
<polygon fill="#407239" stroke="#407239" points="3448.9325,-838.8321 3438.1987,-836.5882 3444.0496,-839.9075 3439.1666,-840.9829 3439.1666,-840.9829 3439.1666,-840.9829 3444.0496,-839.9075 3440.1344,-845.3776 3448.9325,-838.8321 3448.9325,-838.8321"/>
<polygon fill="#407239" stroke="#407239" points="2874.7832,-167.3962 2864.918,-162.6078 2869.7853,-167.2511 2864.7874,-167.1059 2864.7874,-167.1059 2864.7874,-167.1059 2869.7853,-167.2511 2864.6567,-171.604 2874.7832,-167.3962 2874.7832,-167.3962"/>
<text text-anchor="middle" x="3634.4452" y="-508.3" font-family="Times,serif" font-size="14.00" fill="#000000">tags</text>
</g>
<!-- Activity -->
<g id="node6" class="node">
<title>Activity</title>
<ellipse fill="none" stroke="#000000" cx="1330.9452" cy="-251" rx="47.3916" ry="18"/>
<text text-anchor="middle" x="1330.9452" y="-247.3" font-family="Times,serif" font-size="14.00" fill="#000000">Activity</text>
</g>
<!-- LocalisedAddress -->
<g id="node7" class="node">
<title>LocalisedAddress</title>
<ellipse fill="none" stroke="#000000" cx="1933.9452" cy="-693" rx="92.8835" ry="18"/>
<text text-anchor="middle" x="1933.9452" y="-689.3" font-family="Times,serif" font-size="14.00" fill="#000000">LocalisedAddress</text>
</g>
<!-- Address -->
<g id="node8" class="node">
<title>Address</title>
<ellipse fill="none" stroke="#000000" cx="1208.9452" cy="-91" rx="48.9926" ry="18"/>
<text text-anchor="middle" x="1208.9452" y="-87.3" font-family="Times,serif" font-size="14.00" fill="#000000">Address</text>
</g>
<!-- BankInformation -->
<g id="node9" class="node">
<title>BankInformation</title>
<ellipse fill="none" stroke="#000000" cx="2134.9452" cy="-693" rx="89.8845" ry="18"/>
<text text-anchor="middle" x="2134.9452" y="-689.3" font-family="Times,serif" font-size="14.00" fill="#000000">BankInformation</text>
</g>
<!-- Account -->
<g id="node10" class="node">
<title>Account</title>
<ellipse fill="none" stroke="#000000" cx="1098.9452" cy="-512" rx="49.2915" ry="18"/>
<text text-anchor="middle" x="1098.9452" y="-508.3" font-family="Times,serif" font-size="14.00" fill="#000000">Account</text>
</g>
<!-- Account&#45;&gt;DeliveryService -->
<g id="edge18" class="edge">
<title>Account&#45;&gt;DeliveryService</title>
<path fill="none" stroke="#365f96" d="M1043.993,-519.124C980.6967,-528.1917 881.4891,-545.3157 850.9452,-567 815.8543,-591.9124 793.3191,-638.064 781.9136,-667.0627"/>
<ellipse fill="none" stroke="#365f96" cx="1048.3313" cy="-518.5112" rx="4" ry="4"/>
<ellipse fill="#365f96" stroke="#365f96" cx="780.4114" cy="-671.0159" rx="4" ry="4"/>
</g>
<!-- Account&#45;&gt;Address -->
<g id="edge19" class="edge">
<title>Account&#45;&gt;Address</title>
<path fill="none" stroke="#f67f42" d="M1105.7439,-485.9795C1125.4423,-410.5883 1182.4016,-192.5895 1202.1259,-117.0992"/>
<ellipse fill="none" stroke="#f67f42" cx="1104.683" cy="-490.0401" rx="4" ry="4"/>
<ellipse fill="#f67f42" stroke="#f67f42" cx="1203.225" cy="-112.8925" rx="4" ry="4"/>
</g>
<!-- Account&#45;&gt;Delivery -->
<g id="edge17" class="edge">
<title>Account&#45;&gt;Delivery</title>
<path fill="none" stroke="#522ee7" d="M1142.1856,-529.2809C1166.763,-540.1118 1197.1178,-554.1016 1220.4874,-565.3535"/>
<polygon fill="#522ee7" stroke="#522ee7" points="1141.896,-529.1543 1134.536,-521.0253 1137.3147,-527.1514 1132.7334,-525.1484 1132.7334,-525.1484 1132.7334,-525.1484 1137.3147,-527.1514 1130.9307,-529.2716 1141.896,-529.1543 1141.896,-529.1543"/>
<polygon fill="#522ee7" stroke="#522ee7" points="1220.8042,-565.5072 1227.835,-573.9226 1225.3022,-567.6908 1229.8002,-569.8744 1229.8002,-569.8744 1229.8002,-569.8744 1225.3022,-567.6908 1231.7655,-565.8261 1220.8042,-565.5072 1220.8042,-565.5072"/>
</g>
<!-- Account&#45;&gt;Distributor -->
<g id="edge11" class="edge">
<title>Account&#45;&gt;Distributor</title>
<path fill="none" stroke="#3303f5" d="M1075.675,-534.3241C1032.7244,-573.2095 950.5169,-654.599 998.9452,-711 1023.1961,-739.2433 1255.0277,-763.2144 1372.934,-773.9577"/>
<ellipse fill="none" stroke="#3303f5" cx="1078.7318" cy="-531.577" rx="4" ry="4"/>
<ellipse fill="#3303f5" stroke="#3303f5" cx="1377.2382" cy="-774.3475" rx="4" ry="4"/>
</g>
<!-- Account&#45;&gt;Order -->
<g id="edge12" class="edge">
<title>Account&#45;&gt;Order</title>
<path fill="none" stroke="#0c7798" d="M1049.6744,-499.4545C1034.8132,-493.9852 1019.2071,-486.3811 1006.9452,-476 972.5648,-446.8929 974.4447,-429.6079 954.9452,-389 934.0042,-345.3901 934.1571,-332.2117 916.9452,-287 915.8939,-284.2385 914.7898,-281.3612 913.6821,-278.4896"/>
<ellipse fill="none" stroke="#0c7798" cx="1053.5779" cy="-500.8107" rx="4" ry="4"/>
<polygon fill="#0c7798" stroke="#0c7798" points="913.5892,-278.2497 914.1701,-267.2992 911.7818,-273.5877 909.9743,-268.9258 909.9743,-268.9258 909.9743,-268.9258 911.7818,-273.5877 905.7786,-270.5525 913.5892,-278.2497 913.5892,-278.2497"/>
</g>
<!-- Account&#45;&gt;Order -->
<g id="edge15" class="edge">
<title>Account&#45;&gt;Order</title>
<path fill="none" stroke="#2e7c5c" d="M1078.7102,-488.3702C1058.1502,-464.0191 1025.7463,-424.6854 999.9452,-389 968.3083,-345.2432 966.3041,-330.2257 933.9452,-287 931.1448,-283.2591 928.0655,-279.4108 924.968,-275.6858"/>
<ellipse fill="none" stroke="#2e7c5c" cx="1081.3396" cy="-491.4741" rx="4" ry="4"/>
<polygon fill="#2e7c5c" stroke="#2e7c5c" points="924.7475,-275.4271 921.6833,-264.898 921.5033,-271.6225 918.2591,-267.8178 918.2591,-267.8178 918.2591,-267.8178 921.5033,-271.6225 914.8349,-270.7376 924.7475,-275.4271 924.7475,-275.4271"/>
<text text-anchor="middle" x="1048.9452" y="-377.8" font-family="Times,serif" font-size="14.00" fill="#000000">active_orders</text>
</g>
<!-- Payment -->
<g id="node25" class="node">
<title>Payment</title>
<ellipse fill="none" stroke="#000000" cx="1752.9452" cy="-251" rx="51.9908" ry="18"/>
<text text-anchor="middle" x="1752.9452" y="-247.3" font-family="Times,serif" font-size="14.00" fill="#000000">Payment</text>
</g>
<!-- Account&#45;&gt;Payment -->
<g id="edge13" class="edge">
<title>Account&#45;&gt;Payment</title>
<path fill="none" stroke="#0d56db" d="M1156.1527,-508.1485C1222.9101,-501.8055 1335.2034,-485.3019 1421.9452,-443 1444.3478,-432.0748 1445.7887,-422.9456 1464.9452,-407 1529.2378,-353.4837 1535.3258,-324.8084 1609.9452,-287 1614.151,-284.869 1660.8812,-273.2667 1699.7952,-263.8009"/>
<ellipse fill="none" stroke="#0d56db" cx="1151.826" cy="-508.5438" rx="4" ry="4"/>
<polygon fill="#0d56db" stroke="#0d56db" points="1700.2865,-263.6817 1711.0658,-265.6957 1705.1454,-262.5022 1710.0043,-261.3227 1710.0043,-261.3227 1710.0043,-261.3227 1705.1454,-262.5022 1708.9427,-256.9497 1700.2865,-263.6817 1700.2865,-263.6817"/>
</g>
<!-- Deduction -->
<g id="node37" class="node">
<title>Deduction</title>
<ellipse fill="none" stroke="#000000" cx="1354.9452" cy="-425" rx="58.4896" ry="18"/>
<text text-anchor="middle" x="1354.9452" y="-421.3" font-family="Times,serif" font-size="14.00" fill="#000000">Deduction</text>
</g>
<!-- Account&#45;&gt;Deduction -->
<g id="edge14" class="edge">
<title>Account&#45;&gt;Deduction</title>
<path fill="none" stroke="#99520b" d="M1142.9148,-497.0572C1188.2683,-481.6441 1258.8397,-457.6609 1305.9548,-441.6491"/>
<ellipse fill="none" stroke="#99520b" cx="1138.8681" cy="-498.4324" rx="4" ry="4"/>
<polygon fill="#99520b" stroke="#99520b" points="1306.1669,-441.5771 1317.0831,-442.62 1310.901,-439.9682 1315.6351,-438.3593 1315.6351,-438.3593 1315.6351,-438.3593 1310.901,-439.9682 1314.1871,-434.0986 1306.1669,-441.5771 1306.1669,-441.5771"/>
</g>
<!-- Transaction -->
<g id="node39" class="node">
<title>Transaction</title>
<ellipse fill="none" stroke="#000000" cx="1547.9452" cy="-164" rx="66.0889" ry="18"/>
<text text-anchor="middle" x="1547.9452" y="-160.3" font-family="Times,serif" font-size="14.00" fill="#000000">Transaction</text>
</g>
<!-- Account&#45;&gt;Transaction -->
<g id="edge16" class="edge">
<title>Account&#45;&gt;Transaction</title>
<path fill="none" stroke="#3e40cb" d="M1111.2519,-486.571C1142.2739,-423.6025 1224.7662,-263.3202 1274.9452,-233 1340.7303,-193.2499 1373.4719,-237.5703 1446.9452,-215 1460.4405,-210.8544 1462.3903,-206.4563 1474.9452,-200 1485.0476,-194.8049 1496.0039,-189.3225 1506.2815,-184.2456"/>
<ellipse fill="none" stroke="#3e40cb" cx="1109.3217" cy="-490.5072" rx="4" ry="4"/>
<polygon fill="#3e40cb" stroke="#3e40cb" points="1506.5127,-184.1319 1517.4721,-183.7547 1510.9991,-181.9244 1515.4854,-179.717 1515.4854,-179.717 1515.4854,-179.717 1510.9991,-181.9244 1513.4987,-175.6793 1506.5127,-184.1319 1506.5127,-184.1319"/>
</g>
<!-- LineItem -->
<g id="node11" class="node">
<title>LineItem</title>
<ellipse fill="none" stroke="#000000" cx="868.9452" cy="-164" rx="53.0913" ry="18"/>
<text text-anchor="middle" x="868.9452" y="-160.3" font-family="Times,serif" font-size="14.00" fill="#000000">LineItem</text>
</g>
<!-- Substitution -->
<g id="node29" class="node">
<title>Substitution</title>
<ellipse fill="none" stroke="#000000" cx="868.9452" cy="-91" rx="68.4888" ry="18"/>
<text text-anchor="middle" x="868.9452" y="-87.3" font-family="Times,serif" font-size="14.00" fill="#000000">Substitution</text>
</g>
<!-- LineItem&#45;&gt;Substitution -->
<g id="edge21" class="edge">
<title>LineItem&#45;&gt;Substitution</title>
<path fill="none" stroke="#8c3764" d="M868.9452,-137.9079C868.9452,-131.9427 868.9452,-125.5729 868.9452,-119.512"/>
<ellipse fill="none" stroke="#8c3764" cx="868.9453" cy="-141.9551" rx="4" ry="4"/>
<polygon fill="#8c3764" stroke="#8c3764" points="868.9453,-119.0904 873.4452,-109.0903 868.9453,-114.0904 868.9452,-109.0904 868.9452,-109.0904 868.9452,-109.0904 868.9453,-114.0904 864.4452,-109.0904 868.9453,-119.0904 868.9453,-119.0904"/>
</g>
<!-- Exclusion -->
<g id="node40" class="node">
<title>Exclusion</title>
<ellipse fill="none" stroke="#000000" cx="1010.9452" cy="-91" rx="55.7903" ry="18"/>
<text text-anchor="middle" x="1010.9452" y="-87.3" font-family="Times,serif" font-size="14.00" fill="#000000">Exclusion</text>
</g>
<!-- LineItem&#45;&gt;Exclusion -->
<g id="edge20" class="edge">
<title>LineItem&#45;&gt;Exclusion</title>
<path fill="none" stroke="#48e500" d="M905.7264,-145.0914C926.0434,-134.6467 951.2737,-121.6762 971.9346,-111.0547"/>
<ellipse fill="none" stroke="#48e500" cx="901.9252" cy="-147.0455" rx="4" ry="4"/>
<polygon fill="#48e500" stroke="#48e500" points="972.1783,-110.9295 983.1293,-110.3596 976.6251,-108.6435 981.0719,-106.3574 981.0719,-106.3574 981.0719,-106.3574 976.6251,-108.6435 979.0144,-102.3553 972.1783,-110.9295 972.1783,-110.9295"/>
</g>
<!-- DeliveryList -->
<g id="node12" class="node">
<title>DeliveryList</title>
<ellipse fill="none" stroke="#000000" cx="1250.9452" cy="-693" rx="67.6881" ry="18"/>
<text text-anchor="middle" x="1250.9452" y="-689.3" font-family="Times,serif" font-size="14.00" fill="#000000">DeliveryList</text>
</g>
<!-- DeliveryList&#45;&gt;Delivery -->
<g id="edge22" class="edge">
<title>DeliveryList&#45;&gt;Delivery</title>
<path fill="none" stroke="#4d9a24" d="M1252.4074,-666.6801C1253.307,-650.4879 1254.4594,-629.7448 1255.3777,-613.2145"/>
<ellipse fill="none" stroke="#4d9a24" cx="1252.185" cy="-670.6854" rx="4" ry="4"/>
<polygon fill="#4d9a24" stroke="#4d9a24" points="1255.3876,-613.0348 1260.4355,-603.2998 1255.665,-608.0425 1255.9424,-603.0502 1255.9424,-603.0502 1255.9424,-603.0502 1255.665,-608.0425 1251.4494,-602.8005 1255.3876,-613.0348 1255.3876,-613.0348"/>
</g>
<!-- Delivery&#45;&gt;Address -->
<g id="edge26" class="edge">
<title>Delivery&#45;&gt;Address</title>
<path fill="none" stroke="#6b0e5c" d="M1315.4851,-584.2348C1628.5514,-579.9551 3090.9452,-557.5274 3090.9452,-512 3090.9452,-512 3090.9452,-512 3090.9452,-338 3090.9452,-209.5563 2994.2348,-193.6211 2874.9452,-146 2798.7615,-115.587 1550.3442,-95.8985 1266.1883,-91.7982"/>
<ellipse fill="none" stroke="#6b0e5c" cx="1311.4298" cy="-584.2899" rx="4" ry="4"/>
<ellipse fill="#6b0e5c" stroke="#6b0e5c" cx="1262.0643" cy="-91.739" rx="4" ry="4"/>
</g>
<!-- Delivery&#45;&gt;Account -->
<g id="edge25" class="edge">
<title>Delivery&#45;&gt;Account</title>
<path fill="none" stroke="#69e2c8" d="M1215.2329,-568.3917C1189.615,-557.1292 1157.2976,-542.2288 1133.1775,-530.5731"/>
<ellipse fill="none" stroke="#69e2c8" cx="1218.936" cy="-570.0094" rx="4" ry="4"/>
<ellipse fill="#69e2c8" stroke="#69e2c8" cx="1129.5686" cy="-528.8174" rx="4" ry="4"/>
</g>
<!-- Delivery&#45;&gt;Customer -->
<g id="edge27" class="edge">
<title>Delivery&#45;&gt;Customer</title>
<path fill="none" stroke="#8cbff7" d="M1251.3795,-558.9394C1249.9433,-523.1499 1255.9694,-457.4836 1278.9452,-407 1286.9257,-389.4649 1300.4453,-372.6188 1313.2458,-359.9619"/>
<ellipse fill="none" stroke="#8cbff7" cx="1251.6223" cy="-562.9551" rx="4" ry="4"/>
<ellipse fill="#8cbff7" stroke="#8cbff7" cx="1316.1516" cy="-357.2063" rx="4" ry="4"/>
</g>
<!-- Delivery&#45;&gt;Distributor -->
<g id="edge23" class="edge">
<title>Delivery&#45;&gt;Distributor</title>
<path fill="none" stroke="#b60ff5" d="M1280.5536,-608.3811C1314.071,-646.8071 1373.1897,-721.3173 1397.9452,-744 1403.2403,-748.8517 1409.224,-753.5742 1415.0488,-757.9168"/>
<ellipse fill="none" stroke="#b60ff5" cx="1277.6513" cy="-605.0911" rx="4" ry="4"/>
<ellipse fill="#b60ff5" stroke="#b60ff5" cx="1418.5337" cy="-760.4645" rx="4" ry="4"/>
</g>
<!-- Box -->
<g id="node21" class="node">
<title>Box</title>
<ellipse fill="none" stroke="#000000" cx="331.9452" cy="-91" rx="28.6953" ry="18"/>
<text text-anchor="middle" x="331.9452" y="-87.3" font-family="Times,serif" font-size="14.00" fill="#000000">Box</text>
</g>
<!-- Delivery&#45;&gt;Box -->
<g id="edge24" class="edge">
<title>Delivery&#45;&gt;Box</title>
<path fill="none" stroke="#c53fcb" d="M1198.8049,-582.4682C1129.6763,-577.915 1011.7392,-565.2288 916.9452,-530 778.5438,-478.5651 435.8537,-302.7934 350.9452,-182 337.6054,-163.0223 333.2555,-136.6693 332.0059,-117.2048"/>
<ellipse fill="none" stroke="#c53fcb" cx="1202.9963" cy="-582.7324" rx="4" ry="4"/>
<ellipse fill="#c53fcb" stroke="#c53fcb" cx="331.8174" cy="-113.0583" rx="4" ry="4"/>
</g>
<!-- Delivery&#45;&gt;Payment -->
<g id="edge28" class="edge">
<title>Delivery&#45;&gt;Payment</title>
<path fill="none" stroke="#4ac2b5" d="M1287.5105,-564.2124C1327.247,-537.0047 1398.5839,-487.5348 1457.9452,-443 1547.0032,-376.1858 1556.806,-341.4006 1653.9452,-287 1669.1415,-278.4897 1686.7322,-271.3291 1702.8327,-265.6918"/>
<ellipse fill="none" stroke="#4ac2b5" cx="1283.7705" cy="-566.7696" rx="4" ry="4"/>
<polygon fill="#4ac2b5" stroke="#4ac2b5" points="1703.1568,-265.5823 1714.0713,-266.6433 1707.8936,-263.9813 1712.6303,-262.3802 1712.6303,-262.3802 1712.6303,-262.3802 1707.8936,-263.9813 1711.1893,-258.1171 1703.1568,-265.5823 1703.1568,-265.5823"/>
</g>
<!-- Delivery&#45;&gt;Deduction -->
<g id="edge29" class="edge">
<title>Delivery&#45;&gt;Deduction</title>
<path fill="none" stroke="#84054e" d="M1275.0733,-560.5842C1277.7755,-556.7505 1280.479,-552.7991 1282.9452,-549 1304.0983,-516.414 1326.2185,-477.4753 1340.2654,-452.0395"/>
<ellipse fill="none" stroke="#84054e" cx="1272.5922" cy="-564.0476" rx="4" ry="4"/>
<polygon fill="#84054e" stroke="#84054e" points="1340.42,-451.758 1349.179,-445.1602 1342.8275,-447.3758 1345.2349,-442.9935 1345.2349,-442.9935 1345.2349,-442.9935 1342.8275,-447.3758 1341.2909,-440.8268 1340.42,-451.758 1340.42,-451.758"/>
</g>
<!-- ScheduleTransaction -->
<g id="node14" class="node">
<title>ScheduleTransaction</title>
<ellipse fill="none" stroke="#000000" cx="3585.9452" cy="-853" rx="109.381" ry="18"/>
<text text-anchor="middle" x="3585.9452" y="-849.3" font-family="Times,serif" font-size="14.00" fill="#000000">ScheduleTransaction</text>
</g>
<!-- Package -->
<g id="node15" class="node">
<title>Package</title>
<ellipse fill="none" stroke="#000000" cx="409.9452" cy="-164" rx="50.0912" ry="18"/>
<text text-anchor="middle" x="409.9452" y="-160.3" font-family="Times,serif" font-size="14.00" fill="#000000">Package</text>
</g>
<!-- Package&#45;&gt;DeliveryService -->
<g id="edge33" class="edge">
<title>Package&#45;&gt;DeliveryService</title>
<path fill="none" stroke="#2c44ee" d="M442.8428,-184.2407C450.0174,-189.1136 457.4122,-194.5076 463.9452,-200 561.1588,-281.7281 592.7362,-299.8669 660.9452,-407 716.8088,-494.7426 752.5667,-614.822 766.4244,-667.0155"/>
<ellipse fill="none" stroke="#2c44ee" cx="439.115" cy="-181.7681" rx="4" ry="4"/>
<ellipse fill="#2c44ee" stroke="#2c44ee" cx="767.4474" cy="-670.9244" rx="4" ry="4"/>
</g>
<!-- Package&#45;&gt;Address -->
<g id="edge36" class="edge">
<title>Package&#45;&gt;Address</title>
<path fill="none" stroke="#43a557" d="M467.2854,-159.6517C606.3002,-149.0471 958.479,-121.7904 1075.9452,-109 1102.1674,-106.1448 1131.2056,-102.295 1155.4419,-98.8885"/>
<ellipse fill="none" stroke="#43a557" cx="463.2235" cy="-159.9613" rx="4" ry="4"/>
<ellipse fill="#43a557" stroke="#43a557" cx="1159.5055" cy="-98.3132" rx="4" ry="4"/>
</g>
<!-- Package&#45;&gt;Account -->
<g id="edge34" class="edge">
<title>Package&#45;&gt;Account</title>
<path fill="none" stroke="#c308ac" d="M449.4244,-181.2651C462.1404,-187.0188 476.2285,-193.5978 488.9452,-200 517.2417,-214.2458 958.8834,-463.3888 987.9452,-476 1008.2896,-484.8283 1031.5315,-492.6891 1051.473,-498.7956"/>
<ellipse fill="none" stroke="#c308ac" cx="445.7651" cy="-179.6203" rx="4" ry="4"/>
<ellipse fill="#c308ac" stroke="#c308ac" cx="1055.3956" cy="-499.9781" rx="4" ry="4"/>
</g>
<!-- Package&#45;&gt;Delivery -->
<g id="edge37" class="edge">
<title>Package&#45;&gt;Delivery</title>
<path fill="none" stroke="#bbfcfb" d="M456.174,-178.2531C474.4212,-184.3301 495.413,-191.8896 513.9452,-200 526.8786,-205.6601 528.9795,-209.4143 541.9452,-215 565.1791,-225.0093 573.7856,-220.7955 595.9452,-233 660.5479,-268.5802 793.2979,-399.6219 852.9452,-443 910.6737,-484.9826 921.9946,-502.6937 987.9452,-530 1056.9781,-558.5825 1142.321,-572.7828 1198.1215,-579.4976"/>
<ellipse fill="none" stroke="#bbfcfb" cx="452.3368" cy="-176.9916" rx="4" ry="4"/>
<polygon fill="#bbfcfb" stroke="#bbfcfb" points="1198.2531,-579.5127 1207.6674,-585.136 1203.2197,-580.0894 1208.1863,-580.666 1208.1863,-580.666 1208.1863,-580.666 1203.2197,-580.0894 1208.7053,-576.196 1198.2531,-579.5127 1198.2531,-579.5127"/>
</g>
<!-- Package&#45;&gt;Package -->
<g id="edge30" class="edge">
<title>Package&#45;&gt;Package</title>
<path fill="none" stroke="#e4ac4d" d="M465.1452,-170.0319C472.8415,-169.0429 477.9908,-167.0322 477.9908,-164 477.9908,-160.9678 472.8415,-158.9571 465.1452,-157.9681"/>
<ellipse fill="none" stroke="#e4ac4d" cx="460.6846" cy="-170.3742" rx="4" ry="4"/>
<ellipse fill="#e4ac4d" stroke="#e4ac4d" cx="460.6846" cy="-157.6258" rx="4" ry="4"/>
<text text-anchor="middle" x="526.4908" y="-160.3" font-family="Times,serif" font-size="14.00" fill="#000000">new_package</text>
</g>
<!-- Package&#45;&gt;Customer -->
<g id="edge35" class="edge">
<title>Package&#45;&gt;Customer</title>
<path fill="none" stroke="#8d29c9" d="M460.8173,-175.4484C484.9115,-181.562 513.8423,-189.916 538.9452,-200 552.0454,-205.2624 553.6276,-210.315 566.9452,-215 597.7609,-225.8405 823.7092,-263.712 855.9452,-269 1009.2154,-294.1424 1190.4831,-318.3211 1282.9832,-330.2617"/>
<ellipse fill="none" stroke="#8d29c9" cx="456.7256" cy="-174.4289" rx="4" ry="4"/>
<ellipse fill="#8d29c9" stroke="#8d29c9" cx="1287.1455" cy="-330.798" rx="4" ry="4"/>
</g>
<!-- Package&#45;&gt;Distributor -->
<g id="edge31" class="edge">
<title>Package&#45;&gt;Distributor</title>
<path fill="none" stroke="#d7a4e0" d="M407.754,-190.233C401.721,-216.336 390.9452,-257.7002 390.9452,-294.5 390.9452,-693 390.9452,-693 390.9452,-693 390.9452,-757.1387 463.0859,-731.253 525.9452,-744 608.0477,-760.6492 1170.5478,-774.0814 1370.5923,-778.4741"/>
<ellipse fill="none" stroke="#d7a4e0" cx="408.6522" cy="-186.2226" rx="4" ry="4"/>
<ellipse fill="#d7a4e0" stroke="#d7a4e0" cx="1374.7007" cy="-778.5639" rx="4" ry="4"/>
</g>
<!-- Package&#45;&gt;Box -->
<g id="edge32" class="edge">
<title>Package&#45;&gt;Box</title>
<path fill="none" stroke="#670bb1" d="M385.6925,-141.3019C375.5566,-131.8158 363.8623,-120.8711 353.9755,-111.6181"/>
<ellipse fill="none" stroke="#670bb1" cx="388.9339" cy="-144.3356" rx="4" ry="4"/>
<ellipse fill="#670bb1" stroke="#670bb1" cx="351.0037" cy="-108.8368" rx="4" ry="4"/>
</g>
<!-- Customer&#45;&gt;Activity -->
<g id="edge41" class="edge">
<title>Customer&#45;&gt;Activity</title>
<path fill="none" stroke="#a27f6d" d="M1340.0287,-311.7895C1338.4796,-301.4227 1336.6968,-289.4913 1335.123,-278.9592"/>
<ellipse fill="none" stroke="#a27f6d" cx="1340.6604" cy="-316.0175" rx="4" ry="4"/>
<polygon fill="#a27f6d" stroke="#a27f6d" points="1335.1133,-278.8936 1338.086,-268.3383 1334.3743,-273.9485 1333.6354,-269.0034 1333.6354,-269.0034 1333.6354,-269.0034 1334.3743,-273.9485 1329.1848,-269.6684 1335.1133,-278.8936 1335.1133,-278.8936"/>
</g>
<!-- Customer&#45;&gt;Address -->
<g id="edge38" class="edge">
<title>Customer&#45;&gt;Address</title>
<path fill="none" stroke="#147e61" d="M1311.8155,-317.001C1282.1012,-295.4606 1239.908,-258.9456 1221.9452,-215 1219.4228,-208.8289 1221.7602,-206.6641 1221.9452,-200 1222.8455,-167.565 1228.928,-158.8911 1222.9452,-127 1222.3053,-123.5892 1221.3521,-120.0862 1220.2382,-116.6678"/>
<ellipse fill="none" stroke="#147e61" cx="1315.4406" cy="-319.5739" rx="4" ry="4"/>
<ellipse fill="#147e61" stroke="#147e61" cx="1218.7886" cy="-112.6864" rx="4" ry="4"/>
</g>
<!-- Customer&#45;&gt;Account -->
<g id="edge39" class="edge">
<title>Customer&#45;&gt;Account</title>
<path fill="none" stroke="#f89d80" d="M1284.8704,-347.4639C1250.8919,-353.8924 1212.3509,-363.1773 1198.9452,-374 1159.6622,-405.714 1181.519,-437.4269 1148.9452,-476 1144.0798,-481.7615 1138.1022,-487.0799 1131.9939,-491.7623"/>
<ellipse fill="none" stroke="#f89d80" cx="1289.0057" cy="-346.7001" rx="4" ry="4"/>
<ellipse fill="#f89d80" stroke="#f89d80" cx="1128.5963" cy="-494.2324" rx="4" ry="4"/>
</g>
<!-- Customer&#45;&gt;Delivery -->
<g id="edge46" class="edge">
<title>Customer&#45;&gt;Delivery</title>
<path fill="none" stroke="#0fc627" d="M1326.015,-363.7035C1315.9111,-375.846 1304.1628,-391.1412 1296.9452,-407 1274.4541,-456.4186 1268.2052,-520.3859 1263.7345,-556.6348"/>
<polygon fill="#0fc627" stroke="#0fc627" points="1326.214,-363.4683 1336.1075,-358.7386 1329.4427,-359.6505 1332.6715,-355.8328 1332.6715,-355.8328 1332.6715,-355.8328 1329.4427,-359.6505 1329.2355,-352.9269 1326.214,-363.4683 1326.214,-363.4683"/>
<polygon fill="#0fc627" stroke="#0fc627" points="1263.6828,-557.0319 1257.926,-566.3652 1263.0355,-561.9898 1262.3882,-566.9478 1262.3882,-566.9478 1262.3882,-566.9478 1263.0355,-561.9898 1266.8503,-567.5303 1263.6828,-557.0319 1263.6828,-557.0319"/>
</g>
<!-- Customer&#45;&gt;Order -->
<g id="edge45" class="edge">
<title>Customer&#45;&gt;Order</title>
<path fill="none" stroke="#3d0ecd" d="M1286.5043,-325.8688C1259.1186,-319.2006 1226.1477,-310.5619 1196.9452,-302 1176.3099,-295.9499 1171.8966,-291.8436 1150.9452,-287 1082.0972,-271.0834 1001.1426,-261.1569 950.829,-255.8551"/>
<polygon fill="#3d0ecd" stroke="#3d0ecd" points="1286.6015,-325.8921 1295.2705,-332.6076 1291.4626,-327.0623 1296.3237,-328.2326 1296.3237,-328.2326 1296.3237,-328.2326 1291.4626,-327.0623 1297.3769,-323.8575 1286.6015,-325.8921 1286.6015,-325.8921"/>
<polygon fill="#3d0ecd" stroke="#3d0ecd" points="950.52,-255.8232 941.0365,-250.3174 945.5466,-255.3084 940.5731,-254.7935 940.5731,-254.7935 940.5731,-254.7935 945.5466,-255.3084 940.1098,-259.2696 950.52,-255.8232 950.52,-255.8232"/>
</g>
<!-- Customer&#45;&gt;Payment -->
<g id="edge43" class="edge">
<title>Customer&#45;&gt;Payment</title>
<path fill="none" stroke="#3d961e" d="M1396.8622,-323.7C1421.8472,-317.4419 1451.9551,-309.764 1478.9452,-302 1499.6111,-296.0553 1504.0335,-292.012 1524.9452,-287 1575.2538,-274.9422 1588.9002,-277.4116 1639.9452,-269 1657.6284,-266.086 1676.98,-262.7713 1694.6459,-259.7874"/>
<polygon fill="#3d961e" stroke="#3d961e" points="1396.55,-323.7779 1385.7574,-321.8366 1391.6992,-324.9901 1386.8484,-326.2023 1386.8484,-326.2023 1386.8484,-326.2023 1391.6992,-324.9901 1387.9393,-330.5681 1396.55,-323.7779 1396.55,-323.7779"/>
<polygon fill="#3d961e" stroke="#3d961e" points="1694.9657,-259.7336 1705.5738,-262.5118 1699.8964,-258.9039 1704.8271,-258.0742 1704.8271,-258.0742 1704.8271,-258.0742 1699.8964,-258.9039 1704.0804,-253.6366 1694.9657,-259.7336 1694.9657,-259.7336"/>
</g>
<!-- Event -->
<g id="node33" class="node">
<title>Event</title>
<ellipse fill="none" stroke="#000000" cx="1860.9452" cy="-251" rx="38.1938" ry="18"/>
<text text-anchor="middle" x="1860.9452" y="-247.3" font-family="Times,serif" font-size="14.00" fill="#000000">Event</text>
</g>
<!-- Customer&#45;&gt;Event -->
<g id="edge40" class="edge">
<title>Customer&#45;&gt;Event</title>
<path fill="none" stroke="#106dfb" d="M1407.0205,-333.1766C1498.0592,-325.2204 1671.0469,-306.3656 1813.9452,-269 1816.8934,-268.2291 1819.9105,-267.3342 1822.9231,-266.3634"/>
<ellipse fill="none" stroke="#106dfb" cx="1402.9898" cy="-333.5239" rx="4" ry="4"/>
<polygon fill="#106dfb" stroke="#106dfb" points="1822.9922,-266.3395 1833.9146,-267.3145 1827.7161,-264.7012 1832.4401,-263.0629 1832.4401,-263.0629 1832.4401,-263.0629 1827.7161,-264.7012 1830.9657,-258.8113 1822.9922,-266.3395 1822.9922,-266.3395"/>
</g>
<!-- Customer&#45;&gt;Deduction -->
<g id="edge44" class="edge">
<title>Customer&#45;&gt;Deduction</title>
<path fill="none" stroke="#c0350a" d="M1353.8553,-366.0897C1355.6194,-375.9266 1357.0174,-386.971 1357.7452,-396.8156"/>
<polygon fill="#c0350a" stroke="#c0350a" points="1353.7975,-365.8042 1356.2222,-355.1098 1352.8047,-360.9038 1351.8118,-356.0034 1351.8118,-356.0034 1351.8118,-356.0034 1352.8047,-360.9038 1347.4014,-356.8969 1353.7975,-365.8042 1353.7975,-365.8042"/>
<polygon fill="#c0350a" stroke="#c0350a" points="1357.7537,-396.9863 1353.7645,-407.2008 1358.0062,-401.9799 1358.2587,-406.9735 1358.2587,-406.9735 1358.2587,-406.9735 1358.0062,-401.9799 1362.753,-406.7463 1357.7537,-396.9863 1357.7537,-396.9863"/>
</g>
<!-- Customer&#45;&gt;Transaction -->
<g id="edge42" class="edge">
<title>Customer&#45;&gt;Transaction</title>
<path fill="none" stroke="#9020a2" d="M1360.329,-311.4848C1375.8398,-288.205 1401.0155,-254.7524 1429.9452,-233 1446.1773,-220.795 1454.1028,-224.7002 1471.9452,-215 1487.176,-206.7196 1503.2285,-196.2341 1516.6359,-186.9269"/>
<polygon fill="#9020a2" stroke="#9020a2" points="1360.1328,-311.7861 1350.9056,-317.7114 1357.4048,-315.9764 1354.6768,-320.1666 1354.6768,-320.1666 1354.6768,-320.1666 1357.4048,-315.9764 1358.448,-322.6218 1360.1328,-311.7861 1360.1328,-311.7861"/>
<polygon fill="#9020a2" stroke="#9020a2" points="1516.8533,-186.7738 1527.6203,-184.6951 1520.9413,-183.8948 1525.0293,-181.0159 1525.0293,-181.0159 1525.0293,-181.0159 1520.9413,-183.8948 1522.4382,-177.3367 1516.8533,-186.7738 1516.8533,-186.7738"/>
</g>
<!-- Customer&#45;&gt;ActsAsTaggableOn::Tagging -->
<g id="edge47" class="edge">
<title>Customer&#45;&gt;ActsAsTaggableOn::Tagging</title>
<path fill="none" stroke="#0a2b64" d="M1396.3613,-324.5687C1417.3874,-318.5578 1441.6387,-310.8277 1462.9452,-302 1475.9878,-296.5962 1477.909,-292.4191 1490.9452,-287 1516.2605,-276.4766 1524.3051,-278.7051 1549.9452,-269 1586.0315,-255.3408 1591.7357,-243.2098 1628.9452,-233 1700.5103,-213.3635 1722.0994,-229.1649 1794.9452,-215 1835.1358,-207.1849 1879.3899,-194.7005 1913.9609,-184.04"/>
<ellipse fill="none" stroke="#0a2b64" cx="1392.3242" cy="-325.704" rx="4" ry="4"/>
<polygon fill="#0a2b64" stroke="#0a2b64" points="1914.355,-183.9173 1925.241,-185.239 1919.1287,-182.43 1923.9024,-180.9426 1923.9024,-180.9426 1923.9024,-180.9426 1919.1287,-182.43 1922.5638,-176.6463 1914.355,-183.9173 1914.355,-183.9173"/>
<text text-anchor="middle" x="1660.4452" y="-247.3" font-family="Times,serif" font-size="14.00" fill="#000000">taggings</text>
</g>
<!-- Customer&#45;&gt;ActsAsTaggableOn::Tagging -->
<g id="edge49" class="edge">
<title>Customer&#45;&gt;ActsAsTaggableOn::Tagging</title>
<path fill="none" stroke="#690632" d="M1370.3711,-315.9131C1375.8542,-311.3199 1381.5913,-306.5062 1386.9452,-302 1404.3169,-287.3788 1410.5177,-285.6598 1425.9452,-269 1439.3552,-254.5189 1436.3888,-245.1461 1451.9452,-233 1468.9237,-219.7436 1477.4212,-224.1001 1496.9452,-215 1509.7412,-209.0358 1511.4003,-203.9804 1524.9452,-200 1579.6342,-183.9288 1717.4573,-174.4983 1826.2848,-169.3506"/>
<ellipse fill="none" stroke="#690632" cx="1367.1563" cy="-318.6045" rx="4" ry="4"/>
<polygon fill="#690632" stroke="#690632" points="1826.3996,-169.3453 1836.5978,-173.376 1831.3943,-169.1131 1836.3889,-168.8809 1836.3889,-168.8809 1836.3889,-168.8809 1831.3943,-169.1131 1836.1799,-164.3858 1826.3996,-169.3453 1826.3996,-169.3453"/>
<text text-anchor="middle" x="1498.9452" y="-247.3" font-family="Times,serif" font-size="14.00" fill="#000000">tag_taggings</text>
</g>
<!-- Customer&#45;&gt;ActsAsTaggableOn::Tag -->
<g id="edge48" class="edge">
<title>Customer&#45;&gt;ActsAsTaggableOn::Tag</title>
<path fill="none" stroke="#3abcf3" d="M1409.3636,-332.8183C1482.3398,-326.7386 1603.833,-315.7229 1707.9452,-302 1797.2634,-290.2271 1826.5139,-307.5394 1907.9452,-269 1929.8641,-258.6263 1926.6441,-242.5241 1948.9452,-233 2008.6881,-207.4858 2408.0733,-182.2728 2616.6325,-170.6497"/>
<polygon fill="#3abcf3" stroke="#3abcf3" points="1408.9225,-332.8547 1398.5855,-329.1946 1403.9395,-333.267 1398.9566,-333.6793 1398.9566,-333.6793 1398.9566,-333.6793 1403.9395,-333.267 1399.3276,-338.164 1408.9225,-332.8547 1408.9225,-332.8547"/>
<polygon fill="#3abcf3" stroke="#3abcf3" points="2616.7388,-170.6439 2626.9729,-174.5828 2621.7311,-170.3668 2626.7235,-170.0897 2626.7235,-170.0897 2626.7235,-170.0897 2621.7311,-170.3668 2626.474,-165.5966 2616.7388,-170.6439 2616.7388,-170.6439"/>
<text text-anchor="middle" x="1984.9452" y="-247.3" font-family="Times,serif" font-size="14.00" fill="#000000">base_tags</text>
</g>
<!-- Customer&#45;&gt;ActsAsTaggableOn::Tag -->
<g id="edge50" class="edge">
<title>Customer&#45;&gt;ActsAsTaggableOn::Tag</title>
<path fill="none" stroke="#63fb69" d="M1409.918,-334.1547C1498.5499,-328.6748 1660.9019,-317.5338 1798.9452,-302 2113.2727,-266.6291 2483.9676,-207.2336 2652.0068,-179.3418"/>
<polygon fill="#63fb69" stroke="#63fb69" points="1409.7242,-334.1665 1399.4674,-330.2874 1404.7336,-334.4727 1399.743,-334.7789 1399.743,-334.7789 1399.743,-334.7789 1404.7336,-334.4727 1400.0186,-339.2705 1409.7242,-334.1665 1409.7242,-334.1665"/>
<polygon fill="#63fb69" stroke="#63fb69" points="2652.1846,-179.3123 2662.7872,-182.1114 2657.1169,-178.4923 2662.0492,-177.6723 2662.0492,-177.6723 2662.0492,-177.6723 2657.1169,-178.4923 2661.3112,-173.2332 2652.1846,-179.3123 2652.1846,-179.3123"/>
<text text-anchor="middle" x="2315.4452" y="-247.3" font-family="Times,serif" font-size="14.00" fill="#000000">tags</text>
</g>
<!-- Distributor&#45;&gt;CustomerLogin -->
<g id="edge74" class="edge">
<title>Distributor&#45;&gt;CustomerLogin</title>
<path fill="none" stroke="#7faf9e" d="M1384.8956,-766.417C1320.5261,-750.8176 1215.0777,-725.2633 1147.1048,-708.7908"/>
<ellipse fill="none" stroke="#7faf9e" cx="1389.0139" cy="-767.4149" rx="4" ry="4"/>
<polygon fill="#7faf9e" stroke="#7faf9e" points="1147.0759,-708.7838 1138.4171,-702.0551 1142.2166,-707.6062 1137.3572,-706.4285 1137.3572,-706.4285 1137.3572,-706.4285 1142.2166,-707.6062 1136.2973,-710.8019 1147.0759,-708.7838 1147.0759,-708.7838"/>
</g>
<!-- Distributor&#45;&gt;CustomerCheckout -->
<g id="edge75" class="edge">
<title>Distributor&#45;&gt;CustomerCheckout</title>
<path fill="none" stroke="#6aa025" d="M1503.7569,-769.5108C1535.1542,-763.4812 1573.4907,-754.9192 1606.9452,-744 1631.5424,-735.9717 1658.0018,-724.452 1679.3322,-714.3916"/>
<ellipse fill="none" stroke="#6aa025" cx="1499.4451" cy="-770.3246" rx="4" ry="4"/>
<polygon fill="#6aa025" stroke="#6aa025" points="1679.4198,-714.3498 1690.3828,-714.0973 1683.931,-712.1935 1688.4422,-710.0373 1688.4422,-710.0373 1688.4422,-710.0373 1683.931,-712.1935 1686.5015,-705.9772 1679.4198,-714.3498 1679.4198,-714.3498"/>
</g>
<!-- Distributor&#45;&gt;DeliveryService -->
<g id="edge57" class="edge">
<title>Distributor&#45;&gt;DeliveryService</title>
<path fill="none" stroke="#f2b935" d="M1370.0899,-778.4424C1242.2895,-775.1248 978.1787,-765.8059 888.9452,-744 862.3923,-737.5113 834.2888,-725.3073 812.3947,-714.4644"/>
<ellipse fill="none" stroke="#f2b935" cx="1374.3088" cy="-778.5501" rx="4" ry="4"/>
<polygon fill="#f2b935" stroke="#f2b935" points="812.3375,-714.4356 805.4457,-705.906 807.8759,-712.1785 803.4143,-709.9215 803.4143,-709.9215 803.4143,-709.9215 807.8759,-712.1785 801.383,-713.9369 812.3375,-714.4356 812.3375,-714.4356"/>
</g>
<!-- Distributor&#45;&gt;LocalisedAddress -->
<g id="edge52" class="edge">
<title>Distributor&#45;&gt;LocalisedAddress</title>
<path fill="none" stroke="#e181be" d="M1502.3053,-769.1717C1592.1106,-753.3238 1759.2684,-723.8253 1857.1231,-706.5569"/>
<ellipse fill="none" stroke="#e181be" cx="1498.1124" cy="-769.9116" rx="4" ry="4"/>
<ellipse fill="#e181be" stroke="#e181be" cx="1861.2691" cy="-705.8252" rx="4" ry="4"/>
</g>
<!-- Distributor&#45;&gt;BankInformation -->
<g id="edge51" class="edge">
<title>Distributor&#45;&gt;BankInformation</title>
<path fill="none" stroke="#0550ba" d="M1508.7384,-773.5733C1619.3788,-762.7629 1845.5346,-739.3206 2035.9452,-711 2044.3459,-709.7505 2053.1263,-708.3264 2061.8393,-706.8391"/>
<ellipse fill="none" stroke="#0550ba" cx="1504.6326" cy="-773.9732" rx="4" ry="4"/>
<ellipse fill="#0550ba" stroke="#0550ba" cx="2065.868" cy="-706.1414" rx="4" ry="4"/>
</g>
<!-- Distributor&#45;&gt;Account -->
<g id="edge63" class="edge">
<title>Distributor&#45;&gt;Account</title>
<path fill="none" stroke="#7a3459" d="M1370.1086,-774.6435C1247.2674,-764.2608 1005.7265,-739.861 980.9452,-711 932.2069,-654.2379 1015.7822,-572.1665 1065.8454,-533.5826"/>
<polygon fill="#7a3459" stroke="#7a3459" points="1370.2146,-774.6523 1379.8048,-779.9701 1375.1972,-775.069 1380.1798,-775.4858 1380.1798,-775.4858 1380.1798,-775.4858 1375.1972,-775.069 1380.5549,-771.0014 1370.2146,-774.6523 1370.2146,-774.6523"/>
<polygon fill="#7a3459" stroke="#7a3459" points="1065.872,-533.5626 1076.5697,-531.1523 1069.8691,-530.5587 1073.8663,-527.5549 1073.8663,-527.5549 1073.8663,-527.5549 1069.8691,-530.5587 1071.1628,-523.9575 1065.872,-533.5626 1065.872,-533.5626"/>
</g>
<!-- Distributor&#45;&gt;LineItem -->
<g id="edge69" class="edge">
<title>Distributor&#45;&gt;LineItem</title>
<path fill="none" stroke="#9a1281" d="M1370.3531,-778.7496C1213.6796,-775.607 840.9642,-766.003 716.9452,-744 641.787,-730.6657 552.9452,-769.332 552.9452,-693 552.9452,-693 552.9452,-693 552.9452,-548.5 552.9452,-380.3958 557.639,-289.4872 699.9452,-200 740.3974,-174.5622 759.3456,-192.5799 805.9452,-182 810.3061,-181.0099 814.8133,-179.8994 819.319,-178.7289"/>
<ellipse fill="none" stroke="#9a1281" cx="1374.5537" cy="-778.8328" rx="4" ry="4"/>
<polygon fill="#9a1281" stroke="#9a1281" points="819.4659,-178.6895 830.2912,-180.4396 824.2945,-177.3917 829.1232,-176.0938 829.1232,-176.0938 829.1232,-176.0938 824.2945,-177.3917 827.9551,-171.748 819.4659,-178.6895 819.4659,-178.6895"/>
</g>
<!-- Distributor&#45;&gt;DeliveryList -->
<g id="edge66" class="edge">
<title>Distributor&#45;&gt;DeliveryList</title>
<path fill="none" stroke="#dcf905" d="M1387.6237,-764.9656C1369.8808,-759.2467 1350.2428,-752.1239 1332.9452,-744 1315.9804,-736.0324 1298.1944,-725.2975 1283.5399,-715.7317"/>
<ellipse fill="none" stroke="#dcf905" cx="1391.8129" cy="-766.2885" rx="4" ry="4"/>
<polygon fill="#dcf905" stroke="#dcf905" points="1283.1848,-715.4958 1277.3457,-706.2138 1279.0201,-712.7289 1274.8554,-709.962 1274.8554,-709.962 1274.8554,-709.962 1279.0201,-712.7289 1272.3652,-713.7102 1283.1848,-715.4958 1283.1848,-715.4958"/>
</g>
<!-- Distributor&#45;&gt;Delivery -->
<g id="edge59" class="edge">
<title>Distributor&#45;&gt;Delivery</title>
<path fill="none" stroke="#2d4285" d="M1398.9277,-759.0256C1392.2555,-754.3833 1385.6944,-749.2678 1379.9452,-744 1355.7833,-721.8612 1298.8865,-650.3507 1271.5492,-611.2064"/>
<polygon fill="#2d4285" stroke="#2d4285" points="1399.0491,-759.106 1404.9006,-768.3802 1403.2174,-761.8673 1407.3858,-764.6287 1407.3858,-764.6287 1407.3858,-764.6287 1403.2174,-761.8673 1409.871,-760.8771 1399.0491,-759.106 1399.0491,-759.106"/>
<polygon fill="#2d4285" stroke="#2d4285" points="1271.5248,-611.1708 1269.5956,-600.3759 1268.7028,-607.0433 1265.8808,-602.9157 1265.8808,-602.9157 1265.8808,-602.9157 1268.7028,-607.0433 1262.166,-605.4555 1271.5248,-611.1708 1271.5248,-611.1708"/>
</g>
<!-- Distributor&#45;&gt;Package -->
<g id="edge68" class="edge">
<title>Distributor&#45;&gt;Package</title>
<path fill="none" stroke="#15bf12" d="M1368.5281,-778.603C1163.8297,-774.3493 590.8676,-760.8155 507.9452,-744 445.0859,-731.253 372.9452,-757.1387 372.9452,-693 372.9452,-693 372.9452,-693 372.9452,-294.5 372.9452,-257.9264 383.5888,-216.8446 393.8608,-190.7162"/>
<polygon fill="#15bf12" stroke="#15bf12" points="1368.5783,-778.6039 1378.4832,-783.3095 1373.5772,-778.7072 1378.5761,-778.8104 1378.5761,-778.8104 1378.5761,-778.8104 1373.5772,-778.7072 1378.6691,-774.3114 1368.5783,-778.6039 1368.5783,-778.6039"/>
<polygon fill="#15bf12" stroke="#15bf12" points="393.8719,-190.6897 401.9031,-183.2231 395.8142,-186.0824 397.7565,-181.475 397.7565,-181.475 397.7565,-181.475 395.8142,-186.0824 393.6099,-179.727 393.8719,-190.6897 393.8719,-190.6897"/>
</g>
<!-- Distributor&#45;&gt;Customer -->
<g id="edge62" class="edge">
<title>Distributor&#45;&gt;Customer</title>
<path fill="none" stroke="#b0117a" d="M1447.5042,-753.8955C1462.1463,-689.4138 1491.0447,-519.6762 1421.9452,-407 1410.7803,-388.7941 1393.3117,-372.6985 1377.7339,-360.642"/>
<ellipse fill="none" stroke="#b0117a" cx="1446.5378" cy="-758.0343" rx="4" ry="4"/>
<polygon fill="#b0117a" stroke="#b0117a" points="1377.3424,-360.3501 1372.0164,-350.7644 1373.3343,-357.3609 1369.3262,-354.3717 1369.3262,-354.3717 1369.3262,-354.3717 1373.3343,-357.3609 1366.6359,-357.979 1377.3424,-360.3501 1377.3424,-360.3501"/>
</g>
<!-- DistributorLogin -->
<g id="node18" class="node">
<title>DistributorLogin</title>
<ellipse fill="none" stroke="#000000" cx="2331.9452" cy="-693" rx="89.0842" ry="18"/>
<text text-anchor="middle" x="2331.9452" y="-689.3" font-family="Times,serif" font-size="14.00" fill="#000000">DistributorLogin</text>
</g>
<!-- Distributor&#45;&gt;DistributorLogin -->
<g id="edge73" class="edge">
<title>Distributor&#45;&gt;DistributorLogin</title>
<path fill="none" stroke="#9965de" d="M1510.396,-776.1805C1648.6101,-768.0889 1967.744,-746.9539 2233.9452,-711 2241.8671,-709.93 2250.1222,-708.6599 2258.3322,-707.2966"/>
<ellipse fill="none" stroke="#9965de" cx="1506.3467" cy="-776.4161" rx="4" ry="4"/>
<polygon fill="#9965de" stroke="#9965de" points="2258.4415,-707.278 2269.0563,-710.0305 2263.3701,-706.4364 2268.2988,-705.5947 2268.2988,-705.5947 2268.2988,-705.5947 2263.3701,-706.4364 2267.5413,-701.1589 2258.4415,-707.278 2258.4415,-707.278"/>
</g>
<!-- Distributor&#45;&gt;Order -->
<g id="edge58" class="edge">
<title>Distributor&#45;&gt;Order</title>
<path fill="none" stroke="#958361" d="M1368.4737,-778.7999C1185.749,-774.9855 717.7542,-760.3185 669.9452,-711 593.8636,-632.5163 628.9452,-577.8074 628.9452,-468.5 628.9452,-468.5 628.9452,-468.5 628.9452,-338 628.9452,-291.7737 776.3474,-266.1072 855.0169,-256.0457"/>
<polygon fill="#958361" stroke="#958361" points="1368.5286,-778.8009 1378.4348,-783.5038 1373.5276,-778.9028 1378.5265,-779.0047 1378.5265,-779.0047 1378.5265,-779.0047 1373.5276,-778.9028 1378.6183,-774.5057 1368.5286,-778.8009 1368.5286,-778.8009"/>
<polygon fill="#958361" stroke="#958361" points="855.2542,-256.0163 865.7324,-259.2501 860.2161,-255.4003 865.178,-254.7844 865.178,-254.7844 865.178,-254.7844 860.2161,-255.4003 864.6236,-250.3186 855.2542,-256.0163 855.2542,-256.0163"/>
</g>
<!-- ImportTransaction -->
<g id="node20" class="node">
<title>ImportTransaction</title>
<ellipse fill="none" stroke="#000000" cx="2457.9452" cy="-585" rx="98.5829" ry="18"/>
<text text-anchor="middle" x="2457.9452" y="-581.3" font-family="Times,serif" font-size="14.00" fill="#000000">ImportTransaction</text>
</g>
<!-- Distributor&#45;&gt;ImportTransaction -->
<g id="edge71" class="edge">
<title>Distributor&#45;&gt;ImportTransaction</title>
<path fill="none" stroke="#b0231f" d="M1513.1195,-777.1841C1733.8648,-768.5019 2386.6552,-740.9189 2420.9452,-711 2448.3443,-687.0937 2452.2587,-642.8692 2453.7442,-613.6897"/>
<polygon fill="#b0231f" stroke="#b0231f" points="1512.9309,-777.1914 1502.7623,-773.0867 1507.9348,-777.3873 1502.9386,-777.5832 1502.9386,-777.5832 1502.9386,-777.5832 1507.9348,-777.3873 1503.1149,-782.0798 1512.9309,-777.1914 1512.9309,-777.1914"/>
<polygon fill="#b0231f" stroke="#b0231f" points="2453.7624,-613.3054 2458.7335,-603.531 2454.0005,-608.3111 2454.2386,-603.3168 2454.2386,-603.3168 2454.2386,-603.3168 2454.0005,-608.3111 2449.7437,-603.1025 2453.7624,-613.3054 2453.7624,-613.3054"/>
</g>
<!-- Distributor&#45;&gt;Box -->
<g id="edge56" class="edge">
<title>Distributor&#45;&gt;Box</title>
<path fill="none" stroke="#8ca1d1" d="M1370.1024,-778.9121C1167.0461,-775.5787 585.4184,-764.4698 395.9452,-744 270.6198,-730.4604 116.9452,-819.0547 116.9452,-693 116.9452,-693 116.9452,-693 116.9452,-164 116.9452,-127.1091 231.8769,-105.1397 293.6779,-95.993"/>
<ellipse fill="none" stroke="#8ca1d1" cx="1374.3266" cy="-778.9809" rx="4" ry="4"/>
<polygon fill="#8ca1d1" stroke="#8ca1d1" points="293.9393,-95.9556 304.4775,-98.9882 298.8885,-95.2448 303.8377,-94.5339 303.8377,-94.5339 303.8377,-94.5339 298.8885,-95.2448 303.198,-90.0796 293.9393,-95.9556 293.9393,-95.9556"/>
</g>
<!-- Extra -->
<g id="node22" class="node">
<title>Extra</title>
<ellipse fill="none" stroke="#000000" cx="331.9452" cy="-18" rx="36.2938" ry="18"/>
<text text-anchor="middle" x="331.9452" y="-14.3" font-family="Times,serif" font-size="14.00" fill="#000000">Extra</text>
</g>
<!-- Distributor&#45;&gt;Extra -->
<g id="edge55" class="edge">
<title>Distributor&#45;&gt;Extra</title>
<path fill="none" stroke="#a1a260" d="M1370.4972,-779.7143C1104.8892,-778.4265 176.268,-771.9371 119.9452,-744 93.8911,-731.0767 78.9452,-722.0831 78.9452,-693 78.9452,-693 78.9452,-693 78.9452,-91 78.9452,-48.4623 212.6424,-29.193 285.6561,-21.8414"/>
<ellipse fill="none" stroke="#a1a260" cx="1374.5372" cy="-779.7335" rx="4" ry="4"/>
<polygon fill="#a1a260" stroke="#a1a260" points="286.0118,-21.807 296.3995,-25.3208 290.9885,-21.3244 295.9652,-20.8418 295.9652,-20.8418 295.9652,-20.8418 290.9885,-21.3244 295.5309,-16.3628 286.0118,-21.807 286.0118,-21.807"/>
</g>
<!-- ImportTransactionList -->
<g id="node23" class="node">
<title>ImportTransactionList</title>
<ellipse fill="none" stroke="#000000" cx="2610.9452" cy="-693" rx="116.1796" ry="18"/>
<text text-anchor="middle" x="2610.9452" y="-689.3" font-family="Times,serif" font-size="14.00" fill="#000000">ImportTransactionList</text>
</g>
<!-- Distributor&#45;&gt;ImportTransactionList -->
<g id="edge70" class="edge">
<title>Distributor&#45;&gt;ImportTransactionList</title>
<path fill="none" stroke="#019ada" d="M1511.4866,-778.9401C1730.0253,-775.4639 2386.7909,-763.501 2480.9452,-744 2510.601,-737.8578 2542.2689,-725.5665 2566.9239,-714.5896"/>
<ellipse fill="none" stroke="#019ada" cx="1507.2754" cy="-779.0067" rx="4" ry="4"/>
<polygon fill="#019ada" stroke="#019ada" points="2567.2466,-714.443 2578.2124,-714.402 2571.7985,-712.3741 2576.3504,-710.3053 2576.3504,-710.3053 2576.3504,-710.3053 2571.7985,-712.3741 2574.4885,-706.2085 2567.2466,-714.443 2567.2466,-714.443"/>
</g>
<!-- Distributor&#45;&gt;Payment -->
<g id="edge60" class="edge">
<title>Distributor&#45;&gt;Payment</title>
<path fill="none" stroke="#51be11" d="M1453.055,-754.5653C1468.3385,-722.8693 1495.7981,-667.2399 1521.9452,-621 1596.577,-489.0172 1695.7713,-337.1551 1735.454,-277.2442"/>
<ellipse fill="none" stroke="#51be11" cx="1451.1726" cy="-758.4824" rx="4" ry="4"/>
<polygon fill="#51be11" stroke="#51be11" points="1735.5547,-277.0924 1744.8331,-271.2476 1738.319,-272.926 1741.0834,-268.7597 1741.0834,-268.7597 1741.0834,-268.7597 1738.319,-272.926 1737.3337,-266.2717 1735.5547,-277.0924 1735.5547,-277.0924"/>
</g>
<!-- PackingList -->
<g id="node31" class="node">
<title>PackingList</title>
<ellipse fill="none" stroke="#000000" cx="471.9452" cy="-639" rx="66.0889" ry="18"/>
<text text-anchor="middle" x="471.9452" y="-635.3" font-family="Times,serif" font-size="14.00" fill="#000000">PackingList</text>
</g>
<!-- Distributor&#45;&gt;PackingList -->
<g id="edge67" class="edge">
<title>Distributor&#45;&gt;PackingList</title>
<path fill="none" stroke="#623bb9" d="M1370.254,-778.9592C1163.9282,-775.6868 574.7773,-764.581 538.9452,-744 509.6098,-727.1506 491.1071,-691.6816 481.1527,-666.643"/>
<ellipse fill="none" stroke="#623bb9" cx="1374.3166" cy="-779.0232" rx="4" ry="4"/>
<polygon fill="#623bb9" stroke="#623bb9" points="481.0337,-666.3258 481.732,-655.3822 479.2763,-661.6448 477.519,-656.9637 477.519,-656.9637 477.519,-656.9637 479.2763,-661.6448 473.3061,-658.5453 481.0337,-666.3258 481.0337,-666.3258"/>
</g>
<!-- Distributor&#45;&gt;Event -->
<g id="edge65" class="edge">
<title>Distributor&#45;&gt;Event</title>
<path fill="none" stroke="#8588a0" d="M1494.3329,-764.7359C1507.1583,-759.4864 1520.2315,-752.6764 1530.9452,-744 1536.4567,-739.5365 1776.9688,-377.5057 1843.8491,-276.7599"/>
<ellipse fill="none" stroke="#8588a0" cx="1490.5587" cy="-766.2011" rx="4" ry="4"/>
<polygon fill="#8588a0" stroke="#8588a0" points="1843.8884,-276.7006 1853.1681,-270.8578 1846.6537,-272.5349 1849.4189,-268.3691 1849.4189,-268.3691 1849.4189,-268.3691 1846.6537,-272.5349 1845.6697,-265.8804 1843.8884,-276.7006 1843.8884,-276.7006"/>
</g>
<!-- DistributorsOmniImporters -->
<g id="node36" class="node">
<title>DistributorsOmniImporters</title>
<ellipse fill="none" stroke="#000000" cx="2884.9452" cy="-693" rx="139.9756" ry="18"/>
<text text-anchor="middle" x="2884.9452" y="-689.3" font-family="Times,serif" font-size="14.00" fill="#000000">DistributorsOmniImporters</text>
</g>
<!-- Distributor&#45;&gt;DistributorsOmniImporters -->
<g id="edge72" class="edge">
<title>Distributor&#45;&gt;DistributorsOmniImporters</title>
<path fill="none" stroke="#17947c" d="M1511.4799,-778.614C1718.5196,-774.3916 2322.2962,-760.9373 2518.9452,-744 2611.4323,-736.0341 2716.2939,-720.7803 2789.9951,-709.0219"/>
<ellipse fill="none" stroke="#17947c" cx="1507.3955" cy="-778.6969" rx="4" ry="4"/>
<polygon fill="#17947c" stroke="#17947c" points="2790.3097,-708.9715 2800.8964,-711.8302 2795.2465,-708.1793 2800.1834,-707.3871 2800.1834,-707.3871 2800.1834,-707.3871 2795.2465,-708.1793 2799.4703,-702.9439 2790.3097,-708.9715 2790.3097,-708.9715"/>
<text text-anchor="middle" x="2753.9452" y="-732.8" font-family="Times,serif" font-size="14.00" fill="#000000">distributors_omni_importers</text>
</g>
<!-- Distributor&#45;&gt;Deduction -->
<g id="edge61" class="edge">
<title>Distributor&#45;&gt;Deduction</title>
<path fill="none" stroke="#5051f3" d="M1440.9452,-753.2288C1440.9452,-736.0236 1440.9452,-713.1936 1440.9452,-693 1440.9452,-693 1440.9452,-693 1440.9452,-512 1440.9452,-483.375 1417.1068,-460.7759 1394.5313,-445.7922"/>
<ellipse fill="none" stroke="#5051f3" cx="1440.9453" cy="-757.6694" rx="4" ry="4"/>
<polygon fill="#5051f3" stroke="#5051f3" points="1394.4597,-445.7472 1388.3879,-436.6157 1390.2264,-443.0864 1385.9932,-440.4257 1385.9932,-440.4257 1385.9932,-440.4257 1390.2264,-443.0864 1383.5985,-444.2356 1394.4597,-445.7472 1394.4597,-445.7472"/>
</g>
<!-- Distributor&#45;&gt;Transaction -->
<g id="edge64" class="edge">
<title>Distributor&#45;&gt;Transaction</title>
<path fill="none" stroke="#c7bf73" d="M1368.7361,-777.3048C1268.3587,-772.9358 1092.0975,-762.8347 1030.9452,-744 1002.2311,-735.1562 987.1448,-736.917 971.9452,-711 970.1571,-707.951 971.8921,-636.4532 972.9452,-621 976.8095,-564.2947 963.8023,-545.4543 987.9452,-494 1004.9379,-457.7846 1199.9885,-250.5336 1235.9452,-233 1310.5956,-196.5982 1342.4594,-239.0785 1421.9452,-215 1435.4566,-210.907 1437.0656,-205.7815 1449.9452,-200 1464.7307,-193.363 1481.143,-186.9706 1496.2421,-181.4615"/>
<polygon fill="#c7bf73" stroke="#c7bf73" points="1368.8109,-777.3079 1378.6097,-782.2307 1373.8063,-777.5214 1378.8018,-777.7348 1378.8018,-777.7348 1378.8018,-777.7348 1373.8063,-777.5214 1378.9939,-773.2389 1368.8109,-777.3079 1368.8109,-777.3079"/>
<polygon fill="#c7bf73" stroke="#c7bf73" points="1496.5335,-181.3568 1507.4662,-182.21 1501.2389,-179.666 1505.9444,-177.9751 1505.9444,-177.9751 1505.9444,-177.9751 1501.2389,-179.666 1504.4226,-173.7402 1496.5335,-181.3568 1496.5335,-181.3568"/>
</g>
<!-- Distributor&#45;&gt;ActsAsTaggableOn::Tagging -->
<g id="edge76" class="edge">
<title>Distributor&#45;&gt;ActsAsTaggableOn::Tagging</title>
<path fill="none" stroke="#f6503d" d="M1464.078,-756.7133C1468.0898,-752.5318 1472.1796,-748.1752 1475.9452,-744 1544.6227,-667.8517 1544.2135,-631.4827 1623.9452,-567 1722.028,-487.676 2060.8145,-410.0303 2125.9452,-302 2156.1058,-251.9736 2085.1719,-209.2625 2030.6023,-185.1187"/>
<ellipse fill="none" stroke="#f6503d" cx="1461.0867" cy="-759.8003" rx="4" ry="4"/>
<polygon fill="#f6503d" stroke="#f6503d" points="2030.5018,-185.0754 2023.0999,-176.9845 2025.9102,-183.0962 2021.3186,-181.117 2021.3186,-181.117 2021.3186,-181.117 2025.9102,-183.0962 2019.5373,-185.2494 2030.5018,-185.0754 2030.5018,-185.0754"/>
<text text-anchor="middle" x="1880.4452" y="-464.8" font-family="Times,serif" font-size="14.00" fill="#000000">taggings</text>
</g>
<!-- Distributor&#45;&gt;ActsAsTaggableOn::Tagging -->
<g id="edge78" class="edge">
<title>Distributor&#45;&gt;ActsAsTaggableOn::Tagging</title>
<path fill="none" stroke="#6783f9" d="M1499.5623,-767.0958C1516.9784,-761.6482 1535.5111,-754.1467 1550.9452,-744 1585.1483,-721.5143 1580.9069,-701.6848 1611.9452,-675 1810.1252,-504.6173 1917.4973,-537.0883 2105.9452,-356 2146.4432,-317.0836 2164.8698,-280.5299 2134.9452,-233 2119.4464,-208.3829 2093.0153,-192.5239 2066.0519,-182.3168"/>
<ellipse fill="none" stroke="#6783f9" cx="1495.4869" cy="-768.3123" rx="4" ry="4"/>
<polygon fill="#6783f9" stroke="#6783f9" points="2065.9356,-182.2757 2058.0118,-174.6952 2061.2225,-180.6064 2056.5094,-178.937 2056.5094,-178.937 2056.5094,-178.937 2061.2225,-180.6064 2055.007,-183.1788 2065.9356,-182.2757 2065.9356,-182.2757"/>
<text text-anchor="middle" x="2018.9452" y="-464.8" font-family="Times,serif" font-size="14.00" fill="#000000">tag_taggings</text>
</g>
<!-- Distributor&#45;&gt;ActsAsTaggableOn::Tag -->
<g id="edge77" class="edge">
<title>Distributor&#45;&gt;ActsAsTaggableOn::Tag</title>
<path fill="none" stroke="#1fa6ea" d="M1513.8154,-779.4069C1781.3992,-777.0598 2709.5408,-767.3842 3004.9452,-744 3113.5967,-735.3991 3176.2494,-793.0903 3247.9452,-711 3258.4702,-698.9491 3251.8217,-690.5233 3247.9452,-675 3223.6663,-577.7765 3167.176,-572.9808 3141.9452,-476 3136.2371,-454.0593 3140.9452,-447.671 3140.9452,-425 3140.9452,-425 3140.9452,-425 3140.9452,-251 3140.9452,-235.3864 2951.5373,-199.9118 2834.0492,-179.4091"/>
<polygon fill="#1fa6ea" stroke="#1fa6ea" points="1513.4473,-779.41 1503.4085,-774.9972 1508.4475,-779.4535 1503.4477,-779.497 1503.4477,-779.497 1503.4477,-779.497 1508.4475,-779.4535 1503.4869,-783.9969 1513.4473,-779.41 1513.4473,-779.41"/>
<polygon fill="#1fa6ea" stroke="#1fa6ea" points="2833.8183,-179.369 2824.7373,-173.2219 2828.8922,-178.5122 2823.9662,-177.6554 2823.9662,-177.6554 2823.9662,-177.6554 2828.8922,-178.5122 2823.1951,-182.0888 2833.8183,-179.369 2833.8183,-179.369"/>
<text text-anchor="middle" x="3177.9452" y="-464.8" font-family="Times,serif" font-size="14.00" fill="#000000">base_tags</text>
</g>
<!-- Distributor&#45;&gt;ActsAsTaggableOn::Tag -->
<g id="edge79" class="edge">
<title>Distributor&#45;&gt;ActsAsTaggableOn::Tag</title>
<path fill="none" stroke="#841e83" d="M1513.9879,-779.4081C1817.459,-776.818 2970.4209,-765.6321 3131.9452,-744 3191.8823,-735.973 3226.7299,-758.6645 3263.9452,-711 3273.7918,-698.3887 3265.7774,-690.8947 3263.9452,-675 3258.1529,-624.7503 3191.5262,-267.9344 3154.9452,-233 3103.3795,-183.7555 3068.1746,-212.3239 2997.9452,-200 2995.9277,-199.646 2912.5924,-187.891 2841.738,-177.9093"/>
<polygon fill="#841e83" stroke="#841e83" points="1513.5536,-779.4117 1503.5157,-774.9968 1508.5538,-779.4542 1503.5539,-779.4967 1503.5539,-779.4967 1503.5539,-779.4967 1508.5538,-779.4542 1503.5922,-783.9965 1513.5536,-779.4117 1513.5536,-779.4117"/>
<polygon fill="#841e83" stroke="#841e83" points="2841.735,-177.909 2832.4605,-172.058 2836.7839,-177.2115 2831.8327,-176.514 2831.8327,-176.514 2831.8327,-176.514 2836.7839,-177.2115 2831.205,-180.97 2841.735,-177.909 2841.735,-177.909"/>
<text text-anchor="middle" x="3241.4452" y="-464.8" font-family="Times,serif" font-size="14.00" fill="#000000">tags</text>
</g>
<!-- Pricing -->
<g id="node43" class="node">
<title>Pricing</title>
<ellipse fill="none" stroke="#000000" cx="3086.9452" cy="-693" rx="44.393" ry="18"/>
<text text-anchor="middle" x="3086.9452" y="-689.3" font-family="Times,serif" font-size="14.00" fill="#000000">Pricing</text>
</g>
<!-- Distributor&#45;&gt;Pricing -->
<g id="edge53" class="edge">
<title>Distributor&#45;&gt;Pricing</title>
<path fill="none" stroke="#4aec5b" d="M1511.9798,-779.7326C1761.2197,-778.5548 2595.1647,-772.5252 2860.9452,-744 2938.7735,-735.647 2958.2596,-730.9674 3033.9452,-711 3037.896,-709.9577 3041.9787,-708.7722 3046.0435,-707.5187"/>
<ellipse fill="none" stroke="#4aec5b" cx="1507.7151" cy="-779.7523" rx="4" ry="4"/>
<ellipse fill="#4aec5b" stroke="#4aec5b" cx="3049.988" cy="-706.26" rx="4" ry="4"/>
</g>
<!-- Invoice -->
<g id="node44" class="node">
<title>Invoice</title>
<ellipse fill="none" stroke="#000000" cx="3193.9452" cy="-693" rx="44.6926" ry="18"/>
<text text-anchor="middle" x="3193.9452" y="-689.3" font-family="Times,serif" font-size="14.00" fill="#000000">Invoice</text>
</g>
<!-- Distributor&#45;&gt;Invoice -->
<g id="edge54" class="edge">
<title>Distributor&#45;&gt;Invoice</title>
<path fill="none" stroke="#763079" d="M1511.6787,-779.4861C1767.6721,-777.4389 2645.4376,-768.7384 2924.9452,-744 3021.2434,-735.4769 3045.9736,-733.7004 3139.9452,-711 3143.5174,-710.1371 3147.1912,-709.145 3150.8618,-708.0796"/>
<ellipse fill="none" stroke="#763079" cx="1507.5607" cy="-779.5187" rx="4" ry="4"/>
<polygon fill="#763079" stroke="#763079" points="3150.9374,-708.0565 3161.8171,-709.4286 3155.7179,-706.5913 3160.4984,-705.1261 3160.4984,-705.1261 3160.4984,-705.1261 3155.7179,-706.5913 3159.1798,-700.8237 3150.9374,-708.0565 3150.9374,-708.0565"/>
</g>
<!-- Order&#45;&gt;DeliveryService -->
<g id="edge83" class="edge">
<title>Order&#45;&gt;DeliveryService</title>
<path fill="none" stroke="#7c92b2" d="M895.3645,-276.7534C874.9522,-327.3568 822.0062,-443.9047 796.9452,-548 787.1328,-588.7577 783.7385,-637.48 780.1266,-666.7948"/>
<ellipse fill="none" stroke="#7c92b2" cx="896.8791" cy="-272.929" rx="4" ry="4"/>
<ellipse fill="#7c92b2" stroke="#7c92b2" cx="779.5748" cy="-670.9177" rx="4" ry="4"/>
</g>
<!-- Order&#45;&gt;Address -->
<g id="edge82" class="edge">
<title>Order&#45;&gt;Address</title>
<path fill="none" stroke="#0bb34d" d="M948.6,-245.9519C997.7057,-239.926 1072.0924,-228.8964 1096.9452,-215 1139.894,-190.9852 1175.0992,-144.3543 1193.9666,-115.6214"/>
<ellipse fill="none" stroke="#0bb34d" cx="944.618" cy="-246.4322" rx="4" ry="4"/>
<ellipse fill="#0bb34d" stroke="#0bb34d" cx="1196.2406" cy="-112.0898" rx="4" ry="4"/>
</g>
<!-- Order&#45;&gt;LineItem -->
<g id="edge89" class="edge">
<title>Order&#45;&gt;LineItem</title>
<path fill="none" stroke="#7c322d" d="M892.2408,-223.6093C888.2194,-213.3193 883.6507,-201.6287 879.631,-191.3429"/>
<polygon fill="#7c322d" stroke="#7c322d" points="892.2604,-223.6595 891.7091,-234.6116 894.0804,-228.3165 895.9004,-232.9735 895.9004,-232.9735 895.9004,-232.9735 894.0804,-228.3165 900.0917,-231.3355 892.2604,-223.6595 892.2604,-223.6595"/>
<polygon fill="#7c322d" stroke="#7c322d" points="879.621,-191.3174 880.1723,-180.3654 877.801,-186.6604 875.981,-182.0034 875.981,-182.0034 875.981,-182.0034 877.801,-186.6604 871.7897,-183.6414 879.621,-191.3174 879.621,-191.3174"/>
<text text-anchor="middle" x="961.9452" y="-203.8" font-family="Times,serif" font-size="14.00" fill="#000000">excluded_line_items</text>
</g>
<!-- Order&#45;&gt;LineItem -->
<g id="edge90" class="edge">
<title>Order&#45;&gt;LineItem</title>
<path fill="none" stroke="#45a2fb" d="M856.507,-243.5197C802.8876,-234.6606 721.4188,-220.4224 716.9452,-215 674.8954,-164.0312 676.5994,-213.5061 805.9452,-182 810.2261,-180.9572 814.6539,-179.818 819.0861,-178.6352"/>
<polygon fill="#45a2fb" stroke="#45a2fb" points="856.6314,-243.54 865.7692,-249.6022 861.5652,-244.3509 866.499,-245.1617 866.499,-245.1617 866.499,-245.1617 861.5652,-244.3509 867.2288,-240.7213 856.6314,-243.54 856.6314,-243.54"/>
<polygon fill="#45a2fb" stroke="#45a2fb" points="819.0942,-178.6331 829.9267,-180.3381 823.9174,-177.3151 828.7406,-175.9972 828.7406,-175.9972 828.7406,-175.9972 823.9174,-177.3151 827.5544,-171.6563 819.0942,-178.6331 819.0942,-178.6331"/>
<text text-anchor="middle" x="798.4452" y="-203.8" font-family="Times,serif" font-size="14.00" fill="#000000">substituted_line_items</text>
</g>
<!-- Order&#45;&gt;Delivery -->
<g id="edge85" class="edge">
<title>Order&#45;&gt;Delivery</title>
<path fill="none" stroke="#2e2a85" d="M907.0923,-277.0755C910.8153,-298.5186 916.927,-329.5661 924.9452,-356 951.924,-444.9414 960.3817,-483.6542 1040.9452,-530 1089.904,-558.1645 1153.2519,-572.092 1198.6651,-578.8615"/>
<ellipse fill="none" stroke="#2e2a85" cx="906.4054" cy="-273.021" rx="4" ry="4"/>
<polygon fill="#2e2a85" stroke="#2e2a85" points="1198.7463,-578.8729 1208.0151,-584.733 1203.6967,-579.5753 1208.6472,-580.2776 1208.6472,-580.2776 1208.6472,-580.2776 1203.6967,-579.5753 1209.2793,-575.8222 1198.7463,-578.8729 1198.7463,-578.8729"/>
</g>
<!-- Order&#45;&gt;Package -->
<g id="edge84" class="edge">
<title>Order&#45;&gt;Package</title>
<path fill="none" stroke="#36f07b" d="M859.2348,-243.0145C839.3624,-239.582 815.5181,-235.7385 793.9452,-233 704.5293,-221.6493 678.3063,-240.8034 591.9452,-215 578.4184,-210.9584 577.1543,-204.9829 563.9452,-200 532.3472,-188.0802 495.5627,-179.3041 465.8696,-173.4024"/>
<ellipse fill="none" stroke="#36f07b" cx="863.2658" cy="-243.7181" rx="4" ry="4"/>
<polygon fill="#36f07b" stroke="#36f07b" points="465.5011,-173.3313 456.5363,-167.016 460.5919,-172.3828 455.6826,-171.4343 455.6826,-171.4343 455.6826,-171.4343 460.5919,-172.3828 454.829,-175.8526 465.5011,-173.3313 465.5011,-173.3313"/>
</g>
<!-- Order&#45;&gt;Customer -->
<g id="edge80" class="edge">
<title>Order&#45;&gt;Customer</title>
<path fill="none" stroke="#e034f7" d="M949.4159,-254.4226C1003.0872,-259.2607 1093.32,-269.5166 1168.9452,-287 1189.8966,-291.8436 1194.3099,-295.9499 1214.9452,-302 1241.0951,-309.6669 1270.2667,-317.3954 1294.3135,-323.7154"/>
<ellipse fill="none" stroke="#e034f7" cx="945.1083" cy="-254.0433" rx="4" ry="4"/>
<ellipse fill="#e034f7" stroke="#e034f7" cx="1298.3915" cy="-324.7864" rx="4" ry="4"/>
</g>
<!-- Order&#45;&gt;Distributor -->
<g id="edge81" class="edge">
<title>Order&#45;&gt;Distributor</title>
<path fill="none" stroke="#897b7c" d="M857.6922,-257.1759C784.0721,-267.9546 646.9452,-293.414 646.9452,-338 646.9452,-468.5 646.9452,-468.5 646.9452,-468.5 646.9452,-577.8074 611.8636,-632.5163 687.9452,-711 735.1809,-759.727 1192.5848,-774.6287 1370.6214,-778.6579"/>
<ellipse fill="none" stroke="#897b7c" cx="861.9503" cy="-256.564" rx="4" ry="4"/>
<ellipse fill="#897b7c" stroke="#897b7c" cx="1374.6308" cy="-778.7471" rx="4" ry="4"/>
</g>
<!-- Order&#45;&gt;Extra -->
<g id="edge91" class="edge">
<title>Order&#45;&gt;Extra</title>
<path fill="none" stroke="#b8e5aa" d="M950.5217,-245.6234C990.1884,-240.1404 1042.4703,-230.2522 1056.9452,-215 1100.777,-168.8146 1119.2778,-119.6542 1075.9452,-73 1052.1425,-47.3728 538.6723,-25.8304 378.9379,-19.729"/>
<polygon fill="#b8e5aa" stroke="#b8e5aa" points="950.396,-245.64 939.8908,-242.4948 945.4395,-246.2978 940.4829,-246.9557 940.4829,-246.9557 940.4829,-246.9557 945.4395,-246.2978 941.075,-251.4166 950.396,-245.64 950.396,-245.64"/>
<polygon fill="#b8e5aa" stroke="#b8e5aa" points="378.4905,-19.7121 368.6683,-14.8362 373.4941,-19.5225 368.4977,-19.333 368.4977,-19.333 368.4977,-19.333 373.4941,-19.5225 368.3271,-23.8297 378.4905,-19.7121 378.4905,-19.7121"/>
</g>
<!-- Order&#45;&gt;Substitution -->
<g id="edge87" class="edge">
<title>Order&#45;&gt;Substitution</title>
<path fill="none" stroke="#cce418" d="M858.8187,-243.6048C797.7737,-233.3506 694.7923,-215.956 692.9452,-215 674.5243,-205.4663 667.8828,-201.1629 659.9452,-182 653.8223,-167.2179 650.1766,-158.6718 659.9452,-146 676.8387,-124.0857 743.6429,-109.1661 797.2381,-100.4556"/>
<ellipse fill="none" stroke="#cce418" cx="862.8298" cy="-244.2783" rx="4" ry="4"/>
<polygon fill="#cce418" stroke="#cce418" points="797.5413,-100.4078 808.1207,-103.2936 802.4802,-99.6282 807.4191,-98.8486 807.4191,-98.8486 807.4191,-98.8486 802.4802,-99.6282 806.7174,-94.4036 797.5413,-100.4078 797.5413,-100.4078"/>
</g>
<!-- OrderExtra -->
<g id="node32" class="node">
<title>OrderExtra</title>
<ellipse fill="none" stroke="#000000" cx="732.9452" cy="-164" rx="64.189" ry="18"/>
<text text-anchor="middle" x="732.9452" y="-160.3" font-family="Times,serif" font-size="14.00" fill="#000000">OrderExtra</text>
</g>
<!-- Order&#45;&gt;OrderExtra -->
<g id="edge88" class="edge">
<title>Order&#45;&gt;OrderExtra</title>
<path fill="none" stroke="#8e2326" d="M858.3713,-243.4561C799.0009,-233.3574 701.2251,-216.5269 699.9452,-215 693.2021,-206.9558 696.6906,-197.4575 703.4741,-188.8517"/>
<ellipse fill="none" stroke="#8e2326" cx="862.5363" cy="-244.1639" rx="4" ry="4"/>
<polygon fill="#8e2326" stroke="#8e2326" points="703.6717,-188.6362 713.7475,-184.3084 707.0514,-184.9515 710.4312,-181.2667 710.4312,-181.2667 710.4312,-181.2667 707.0514,-184.9515 707.1149,-178.2249 703.6717,-188.6362 703.6717,-188.6362"/>
</g>
<!-- Order&#45;&gt;ScheduleRule -->
<g id="edge92" class="edge">
<title>Order&#45;&gt;ScheduleRule</title>
<path fill="none" stroke="#1f504a" d="M856.9376,-246.8831C791.0359,-240.8244 666.0049,-228.7284 559.9452,-215 469.35,-203.2733 365.2823,-186.731 298.4021,-175.701"/>
<ellipse fill="none" stroke="#1f504a" cx="861.0795" cy="-247.2623" rx="4" ry="4"/>
<ellipse fill="#1f504a" stroke="#1f504a" cx="294.3802" cy="-175.0362" rx="4" ry="4"/>
</g>
<!-- Order&#45;&gt;Exclusion -->
<g id="edge86" class="edge">
<title>Order&#45;&gt;Exclusion</title>
<path fill="none" stroke="#41e280" d="M948.5083,-244.9528C983.5656,-239.2556 1027.8425,-229.4241 1038.9452,-215 1060.6207,-186.8403 1043.9531,-145.0493 1028.6006,-117.9142"/>
<ellipse fill="none" stroke="#41e280" cx="944.2281" cy="-245.6238" rx="4" ry="4"/>
<polygon fill="#41e280" stroke="#41e280" points="1028.397,-117.5715 1027.1591,-106.6757 1025.8436,-113.2726 1023.2901,-108.9738 1023.2901,-108.9738 1023.2901,-108.9738 1025.8436,-113.2726 1019.4212,-111.2719 1028.397,-117.5715 1028.397,-117.5715"/>
</g>
<!-- Order&#45;&gt;ActsAsTaggableOn::Tagging -->
<g id="edge93" class="edge">
<title>Order&#45;&gt;ActsAsTaggableOn::Tagging</title>
<path fill="none" stroke="#156952" d="M949.5968,-248.1799C1029.0667,-243.1391 1195.7222,-231.5405 1335.9452,-215 1379.7046,-209.8382 1390.1447,-204.8005 1433.9452,-200 1567.2171,-185.3934 1719.6545,-175.8966 1828.6787,-170.345"/>
<ellipse fill="none" stroke="#156952" cx="945.2546" cy="-248.4532" rx="4" ry="4"/>
<polygon fill="#156952" stroke="#156952" points="1828.7733,-170.3403 1838.9873,-174.3308 1833.7669,-170.0884 1838.7606,-169.8366 1838.7606,-169.8366 1838.7606,-169.8366 1833.7669,-170.0884 1838.5339,-165.3423 1828.7733,-170.3403 1828.7733,-170.3403"/>
<text text-anchor="middle" x="1465.4452" y="-203.8" font-family="Times,serif" font-size="14.00" fill="#000000">taggings</text>
</g>
<!-- Order&#45;&gt;ActsAsTaggableOn::Tagging -->
<g id="edge95" class="edge">
<title>Order&#45;&gt;ActsAsTaggableOn::Tagging</title>
<path fill="none" stroke="#46e6ee" d="M947.9404,-244.5935C996.9268,-237.5645 1077.557,-225.8368 1146.9452,-215 1187.4445,-208.675 1197.1809,-204.2978 1237.9452,-200 1408.2991,-182.0395 1451.852,-190.3741 1622.9452,-182 1691.692,-178.6352 1767.9829,-174.7522 1831.9162,-171.4561"/>
<ellipse fill="none" stroke="#46e6ee" cx="943.7242" cy="-245.1976" rx="4" ry="4"/>
<polygon fill="#46e6ee" stroke="#46e6ee" points="1832.0813,-171.4476 1842.2999,-175.4263 1837.0746,-171.1899 1842.068,-170.9322 1842.068,-170.9322 1842.068,-170.9322 1837.0746,-171.1899 1841.8361,-166.4382 1832.0813,-171.4476 1832.0813,-171.4476"/>
<text text-anchor="middle" x="1284.9452" y="-203.8" font-family="Times,serif" font-size="14.00" fill="#000000">tag_taggings</text>
</g>
<!-- Order&#45;&gt;ActsAsTaggableOn::Tag -->
<g id="edge94" class="edge">
<title>Order&#45;&gt;ActsAsTaggableOn::Tag</title>
<path fill="none" stroke="#e8cc02" d="M951.3673,-248.5609C1053.1719,-243.3279 1296.8424,-230.2521 1500.9452,-215 1575.7005,-209.4137 1594.1222,-204.5908 1668.9452,-200 1760.5249,-194.3811 2345.5536,-176.1398 2611.5824,-167.9932"/>
<polygon fill="#e8cc02" stroke="#e8cc02" points="951.0869,-248.5751 940.8698,-244.5926 946.0934,-248.8309 941.1,-249.0867 941.1,-249.0867 941.1,-249.0867 946.0934,-248.8309 941.3302,-253.5808 951.0869,-248.5751 951.0869,-248.5751"/>
<polygon fill="#e8cc02" stroke="#e8cc02" points="2611.6893,-167.99 2621.8224,-172.1818 2616.687,-167.837 2621.6847,-167.684 2621.6847,-167.684 2621.6847,-167.684 2616.687,-167.837 2621.5469,-163.1861 2611.6893,-167.99 2611.6893,-167.99"/>
<text text-anchor="middle" x="1704.9452" y="-203.8" font-family="Times,serif" font-size="14.00" fill="#000000">base_tags</text>
</g>
<!-- Order&#45;&gt;ActsAsTaggableOn::Tag -->
<g id="edge96" class="edge">
<title>Order&#45;&gt;ActsAsTaggableOn::Tag</title>
<path fill="none" stroke="#6ae735" d="M951.6453,-248.492C1022.7032,-244.8671 1158.9704,-238.0456 1274.9452,-233 1482.0149,-223.9913 1534.1796,-229.3872 1740.9452,-215 1807.3416,-210.38 1823.5572,-204.7386 1889.9452,-200 2144.7638,-181.8118 2443.1098,-171.7964 2610.8696,-167.1932"/>
<polygon fill="#6ae735" stroke="#6ae735" points="951.2162,-248.5139 940.9995,-244.5302 946.2227,-248.7691 941.2292,-249.0243 941.2292,-249.0243 941.2292,-249.0243 946.2227,-248.7691 941.4589,-253.5185 951.2162,-248.5139 951.2162,-248.5139"/>
<polygon fill="#6ae735" stroke="#6ae735" points="2610.9896,-167.19 2621.1084,-171.4162 2615.9878,-167.054 2620.9859,-166.9179 2620.9859,-166.9179 2620.9859,-166.9179 2615.9878,-167.054 2620.8634,-162.4195 2610.9896,-167.19 2610.9896,-167.19"/>
<text text-anchor="middle" x="1905.4452" y="-203.8" font-family="Times,serif" font-size="14.00" fill="#000000">tags</text>
</g>
<!-- ImportTransaction&#45;&gt;Distributor -->
<g id="edge97" class="edge">
<title>ImportTransaction&#45;&gt;Distributor</title>
<path fill="none" stroke="#ea6e41" d="M2466.8999,-611.4081C2470.4492,-640.5171 2467.0685,-686.4618 2438.9452,-711 2404.1558,-741.3546 1732.7197,-769.3048 1511.1501,-777.5514"/>
<ellipse fill="none" stroke="#ea6e41" cx="2466.2677" cy="-607.2708" rx="4" ry="4"/>
<ellipse fill="#ea6e41" stroke="#ea6e41" cx="1507.1412" cy="-777.6999" rx="4" ry="4"/>
</g>
<!-- Box&#45;&gt;Order -->
<g id="edge98" class="edge">
<title>Box&#45;&gt;Order</title>
<path fill="none" stroke="#f5d50a" d="M368.6608,-93.5341C419.374,-98.2238 512.6657,-111.1965 583.9452,-146 627.0523,-167.0478 623.0881,-195.5631 666.9452,-215 719.0646,-238.0986 737.5959,-224.3552 793.9452,-233 814.5148,-236.1557 837.2281,-239.8698 856.5731,-243.1021"/>
<ellipse fill="none" stroke="#f5d50a" cx="364.5828" cy="-93.1757" rx="4" ry="4"/>
<polygon fill="#f5d50a" stroke="#f5d50a" points="856.7829,-243.1372 865.9003,-249.2301 861.7139,-243.9646 866.645,-244.7921 866.645,-244.7921 866.645,-244.7921 861.7139,-243.9646 867.3897,-240.3542 856.7829,-243.1372 856.7829,-243.1372"/>
</g>
<!-- Box&#45;&gt;Extra -->
<g id="edge100" class="edge">
<title>Box&#45;&gt;Extra</title>
<path fill="none" stroke="#5ff66d" d="M331.9452,-62.8688C331.9452,-57.3894 331.9452,-51.6439 331.9452,-46.1634"/>
<polygon fill="#5ff66d" stroke="#5ff66d" points="331.9453,-62.9551 327.4452,-72.955 331.9453,-67.9551 331.9452,-72.9551 331.9452,-72.9551 331.9452,-72.9551 331.9453,-67.9551 336.4452,-72.9551 331.9453,-62.9551 331.9453,-62.9551"/>
<polygon fill="#5ff66d" stroke="#5ff66d" points="331.9453,-46.0904 336.4452,-36.0903 331.9453,-41.0904 331.9452,-36.0904 331.9452,-36.0904 331.9452,-36.0904 331.9453,-41.0904 327.4452,-36.0904 331.9453,-46.0904 331.9453,-46.0904"/>
</g>
<!-- BoxExtra -->
<g id="node38" class="node">
<title>BoxExtra</title>
<ellipse fill="none" stroke="#000000" cx="53.9452" cy="-18" rx="53.8905" ry="18"/>
<text text-anchor="middle" x="53.9452" y="-14.3" font-family="Times,serif" font-size="14.00" fill="#000000">BoxExtra</text>
</g>
<!-- Box&#45;&gt;BoxExtra -->
<g id="edge99" class="edge">
<title>Box&#45;&gt;BoxExtra</title>
<path fill="none" stroke="#21a209" d="M297.7815,-82.0289C249.8447,-69.4412 162.2148,-46.4305 106.0967,-31.6944"/>
<ellipse fill="none" stroke="#21a209" cx="301.6722" cy="-83.0506" rx="4" ry="4"/>
<polygon fill="#21a209" stroke="#21a209" points="106.0167,-31.6735 97.4876,-24.7812 101.1807,-30.4036 96.3446,-29.1337 96.3446,-29.1337 96.3446,-29.1337 101.1807,-30.4036 95.2017,-33.4861 106.0167,-31.6735 106.0167,-31.6735"/>
</g>
<!-- ImportTransactionList&#45;&gt;ImportTransaction -->
<g id="edge101" class="edge">
<title>ImportTransactionList&#45;&gt;ImportTransaction</title>
<path fill="none" stroke="#1c9d84" d="M2579.4079,-670.7384C2553.707,-652.5965 2517.5104,-627.046 2491.3243,-608.5617"/>
<ellipse fill="none" stroke="#1c9d84" cx="2582.7547" cy="-673.1008" rx="4" ry="4"/>
<polygon fill="#1c9d84" stroke="#1c9d84" points="2491.0269,-608.3518 2485.4523,-598.9085 2486.942,-605.4683 2482.8572,-602.5849 2482.8572,-602.5849 2482.8572,-602.5849 2486.942,-605.4683 2480.2621,-606.2613 2491.0269,-608.3518 2491.0269,-608.3518"/>
</g>
<!-- CronLog -->
<g id="node24" class="node">
<title>CronLog</title>
<ellipse fill="none" stroke="#000000" cx="3764.9452" cy="-853" rx="51.1914" ry="18"/>
<text text-anchor="middle" x="3764.9452" y="-849.3" font-family="Times,serif" font-size="14.00" fill="#000000">CronLog</text>
</g>
<!-- Payment&#45;&gt;Customer -->
<g id="edge102" class="edge">
<title>Payment&#45;&gt;Customer</title>
<path fill="none" stroke="#405870" d="M1700.4095,-261.778C1686.6239,-264.1971 1671.7744,-266.7211 1657.9452,-269 1606.9002,-277.4116 1593.2538,-274.9422 1542.9452,-287 1522.0335,-292.012 1517.6111,-296.0553 1496.9452,-302 1465.3668,-311.0838 1429.5204,-320.0499 1400.3801,-326.762"/>
<ellipse fill="none" stroke="#405870" cx="1704.4485" cy="-261.0643" rx="4" ry="4"/>
<ellipse fill="#405870" stroke="#405870" cx="1396.2479" cy="-327.7042" rx="4" ry="4"/>
</g>
<!-- Payment&#45;&gt;Transaction -->
<g id="edge103" class="edge">
<title>Payment&#45;&gt;Transaction</title>
<path fill="none" stroke="#85bdba" d="M1705.7769,-236.4335C1687.7513,-230.4109 1667.1602,-222.9716 1648.9452,-215 1636.0119,-209.3399 1633.5001,-206.4563 1620.9452,-200 1610.8428,-194.8049 1599.8865,-189.3225 1589.6089,-184.2456"/>
<ellipse fill="none" stroke="#85bdba" cx="1710.0617" cy="-237.8456" rx="4" ry="4"/>
<polygon fill="#85bdba" stroke="#85bdba" points="1589.3777,-184.1319 1582.3917,-175.6793 1584.8914,-181.9244 1580.405,-179.717 1580.405,-179.717 1580.405,-179.717 1584.8914,-181.9244 1578.4183,-183.7547 1589.3777,-184.1319 1589.3777,-184.1319"/>
</g>
<!-- Admin -->
<g id="node26" class="node">
<title>Admin</title>
<ellipse fill="none" stroke="#000000" cx="3874.9452" cy="-853" rx="40.8928" ry="18"/>
<text text-anchor="middle" x="3874.9452" y="-849.3" font-family="Times,serif" font-size="14.00" fill="#000000">Admin</text>
</g>
<!-- Distributor::Pricing -->
<g id="node27" class="node">
<title>Distributor::Pricing</title>
<ellipse fill="none" stroke="#000000" cx="4035.9452" cy="-853" rx="102.0819" ry="18"/>
<text text-anchor="middle" x="4035.9452" y="-849.3" font-family="Times,serif" font-size="14.00" fill="#000000">Distributor::Pricing</text>
</g>
<!-- Distributor::Invoice -->
<g id="node28" class="node">
<title>Distributor::Invoice</title>
<ellipse fill="none" stroke="#000000" cx="4258.9452" cy="-853" rx="102.8821" ry="18"/>
<text text-anchor="middle" x="4258.9452" y="-849.3" font-family="Times,serif" font-size="14.00" fill="#000000">Distributor::Invoice</text>
</g>
<!-- Substitution&#45;&gt;Customer -->
<g id="edge104" class="edge">
<title>Substitution&#45;&gt;Customer</title>
<path fill="none" stroke="#7b2c70" d="M901.7881,-112.2951C966.2272,-153.3746 1114.6657,-244.5669 1248.9452,-302 1264.9717,-308.8547 1282.7823,-315.7821 1298.6111,-321.7045"/>
<ellipse fill="none" stroke="#7b2c70" cx="898.0876" cy="-109.9286" rx="4" ry="4"/>
<ellipse fill="#7b2c70" stroke="#7b2c70" cx="1302.4563" cy="-323.1332" rx="4" ry="4"/>
</g>
<!-- DeliverySequenceOrder -->
<g id="node30" class="node">
<title>DeliverySequenceOrder</title>
<ellipse fill="none" stroke="#000000" cx="4502.9452" cy="-853" rx="122.6784" ry="18"/>
<text text-anchor="middle" x="4502.9452" y="-849.3" font-family="Times,serif" font-size="14.00" fill="#000000">DeliverySequenceOrder</text>
</g>
<!-- PackingList&#45;&gt;Package -->
<g id="edge105" class="edge">
<title>PackingList&#45;&gt;Package</title>
<path fill="none" stroke="#1ef6cd" d="M468.5222,-612.7754C457.7608,-530.329 424.6727,-276.8312 413.5989,-191.9921"/>
<ellipse fill="none" stroke="#1ef6cd" cx="469.0727" cy="-616.9931" rx="4" ry="4"/>
<polygon fill="#1ef6cd" stroke="#1ef6cd" points="413.5967,-191.9744 416.7645,-181.4761 412.9495,-187.0165 412.3023,-182.0585 412.3023,-182.0585 412.3023,-182.0585 412.9495,-187.0165 407.8402,-182.641 413.5967,-191.9744 413.5967,-191.9744"/>
</g>
<!-- Country -->
<g id="node34" class="node">
<title>Country</title>
<ellipse fill="none" stroke="#000000" cx="4692.9452" cy="-853" rx="48.9926" ry="18"/>
<text text-anchor="middle" x="4692.9452" y="-849.3" font-family="Times,serif" font-size="14.00" fill="#000000">Country</text>
</g>
<!-- Deduction&#45;&gt;Customer -->
<g id="edge106" class="edge">
<title>Deduction&#45;&gt;Customer</title>
<path fill="none" stroke="#b194a0" d="M1345.3794,-398.7895C1343.3183,-387.7748 1341.7066,-374.9937 1340.9937,-364.0016"/>
<ellipse fill="none" stroke="#b194a0" cx="1346.2625" cy="-403.0566" rx="4" ry="4"/>
<ellipse fill="#b194a0" stroke="#b194a0" cx="1340.8123" cy="-359.9993" rx="4" ry="4"/>
</g>
<!-- Deduction&#45;&gt;Transaction -->
<g id="edge107" class="edge">
<title>Deduction&#45;&gt;Transaction</title>
<path fill="none" stroke="#50544a" d="M1384.0789,-403.3843C1426.1363,-373.153 1507.2523,-318.4304 1583.9452,-287 1615.6647,-274.0007 1637.7217,-295.9198 1658.9452,-269 1668.8512,-256.4353 1667.2794,-246.658 1658.9452,-233 1649.8337,-218.0683 1639.0108,-223.8884 1623.9452,-215 1609.2385,-206.3233 1593.487,-195.9445 1580.1592,-186.8215"/>
<ellipse fill="none" stroke="#50544a" cx="1380.6664" cy="-405.8528" rx="4" ry="4"/>
<polygon fill="#50544a" stroke="#50544a" points="1580.0144,-186.7215 1574.3438,-177.3356 1575.9004,-183.8798 1571.7863,-181.0382 1571.7863,-181.0382 1571.7863,-181.0382 1575.9004,-183.8798 1569.2288,-184.7408 1580.0144,-186.7215 1580.0144,-186.7215"/>
</g>
<!-- Deduction&#45;&gt;Transaction -->
<g id="edge108" class="edge">
<title>Deduction&#45;&gt;Transaction</title>
<path fill="none" stroke="#74c4cc" d="M1408.6658,-411.6251C1515.2282,-385.3879 1761.1175,-326.308 1969.9452,-287 1996.013,-282.0932 2070.6608,-289.121 2087.9452,-269 2133.3473,-216.147 2018.1788,-213.8505 1924.9452,-200 1820.5361,-184.4893 1698.8154,-174.2747 1622.5576,-168.8137"/>
<ellipse fill="none" stroke="#74c4cc" cx="1404.5077" cy="-412.6503" rx="4" ry="4"/>
<polygon fill="#74c4cc" stroke="#74c4cc" points="1622.5418,-168.8127 1612.8844,-163.618 1617.5543,-168.4597 1612.5667,-168.1068 1612.5667,-168.1068 1612.5667,-168.1068 1617.5543,-168.4597 1612.2491,-172.5956 1622.5418,-168.8127 1622.5418,-168.8127"/>
<text text-anchor="middle" x="2047.9452" y="-290.8" font-family="Times,serif" font-size="14.00" fill="#000000">reversal_transactions</text>
</g>
<!-- Exclusion&#45;&gt;Customer -->
<g id="edge109" class="edge">
<title>Exclusion&#45;&gt;Customer</title>
<path fill="none" stroke="#b1ee66" d="M1036.9015,-113.316C1092.7951,-161.1337 1223.4755,-271.6013 1272.9452,-302 1282.8941,-308.1135 1294.0099,-314.113 1304.4386,-319.4079"/>
<ellipse fill="none" stroke="#b1ee66" cx="1033.8195" cy="-110.6766" rx="4" ry="4"/>
<ellipse fill="#b1ee66" stroke="#b1ee66" cx="1308.3066" cy="-321.3417" rx="4" ry="4"/>
</g>
</g>
</svg>
